<?xml version="1.0" encoding="utf-8"?>
<!-- Generator: Adobe Illustrator 19.0.0, SVG Export Plug-In . SVG Version: 6.00 Build 0)  -->
<svg version="1.1" id="Capa_1" xmlns="http://www.w3.org/2000/svg" xmlns:xlink="http://www.w3.org/1999/xlink" x="0px" y="0px"
	 viewBox="-417 219 124 124" style="enable-background:new -417 219 124 124;" xml:space="preserve">
<style type="text/css">
	.st0{display:none;}
	.st1{display:inline;fill:url(#XMLID_3_);}
	.st2{opacity:0.5;}
</style>
<g id="XMLID_1_" class="st0">
	
		<radialGradient id="XMLID_3_" cx="-296.625" cy="658.6389" r="165.3603" gradientTransform="matrix(1 0 0 1 0 -436)" gradientUnits="userSpaceOnUse">
		<stop  offset="0" style="stop-color:#2ECC71;stop-opacity:0.9"/>
		<stop  offset="1" style="stop-color:#2ECC71;stop-opacity:0.7"/>
	</radialGradient>
	<path id="XMLID_16_" class="st1" d="M-298,341h-114c-1.7,0-3-1.3-3-3V224c0-1.7,1.3-3,3-3h114c1.7,0,3,1.3,3,3v114
		C-295,339.7-296.3,341-298,341z"/>
</g>
<g>
	<path class="st2" d="M-395.5,227.3l-13.2,13.2c-0.2,0.2-0.3,0.5-0.3,0.7v1c0,1.3,0.8,1.6,1.7,0.7l14.2-14.2
		c0.9-0.9,0.6-1.7-0.7-1.7h-1C-395,227-395.3,227.1-395.5,227.3z"/>
	<path class="st2" d="M-377,227.3l-31.7,31.7c-0.2,0.2-0.3,0.5-0.3,0.7v1c0,1.3,0.8,1.6,1.7,0.7l32.7-32.7c0.9-0.9,0.6-1.7-0.7-1.7
		h-1C-376.5,227-376.8,227.1-377,227.3z"/>
	<path class="st2" d="M-358.4,227.3l-50.3,50.3c-0.2,0.2-0.3,0.5-0.3,0.7v1c0,1.3,0.8,1.6,1.7,0.7l51.2-51.2
		c0.9-0.9,0.6-1.7-0.7-1.7h-1C-358,227-358.3,227.1-358.4,227.3z"/>
	<path class="st2" d="M-339.9,227.3l-68.8,68.8c-0.2,0.2-0.3,0.5-0.3,0.7v1c0,1.3,0.8,1.6,1.7,0.7l69.7-69.7
		c0.9-0.9,0.6-1.7-0.7-1.7h-1C-339.5,227-339.8,227.1-339.9,227.3z"/>
	<path class="st2" d="M-321.4,227.3l-87.3,87.3c-0.2,0.2-0.3,0.5-0.3,0.7v1c0,1.3,0.8,1.6,1.7,0.7l88.2-88.2
		c0.9-0.9,0.6-1.7-0.7-1.7h-1C-320.9,227-321.3,227.1-321.4,227.3z"/>
	<path class="st2" d="M-303.5,227.6c-7.3,7.3-97.7,97.7-105,105c-0.3,0.3-0.4,0.9-0.1,1.3c0.2,0.3,0.5,0.6,0.8,0.8
		c0.4,0.2,0.9,0.2,1.3-0.1c7.3-7.3,97.7-97.7,105-105c0.3-0.3,0.4-0.9,0.1-1.3c-0.2-0.3-0.5-0.6-0.8-0.8
		C-302.6,227.2-303.1,227.3-303.5,227.6z"/>
	<path class="st2" d="M-388.3,334.7l87-87c0.2-0.2,0.3-0.5,0.3-0.7v-1c0-1.3-0.8-1.6-1.7-0.7l-88,88c-0.9,0.9-0.6,1.7,0.7,1.7h1
		C-388.8,335-388.5,334.9-388.3,334.7z"/>
	<path class="st2" d="M-369.8,334.7l68.5-68.5c0.2-0.2,0.3-0.5,0.3-0.7v-1c0-1.3-0.8-1.6-1.7-0.7l-69.4,69.4
		c-0.9,0.9-0.6,1.7,0.7,1.7h1C-370.3,335-369.9,334.9-369.8,334.7z"/>
	<path class="st2" d="M-351.5,334.7l50.3-50.3c0.2-0.2,0.3-0.5,0.3-0.7v-1c0-1.3-0.8-1.6-1.7-0.7l-51.2,51.2
		c-0.9,0.9-0.6,1.7,0.7,1.7h1C-352,335-351.7,334.9-351.5,334.7z"/>
	<path class="st2" d="M-333,334.7l31.7-31.7c0.2-0.2,0.3-0.5,0.3-0.7v-1c0-1.3-0.8-1.6-1.7-0.7l-32.7,32.7c-0.9,0.9-0.6,1.7,0.7,1.7
		h1C-333.5,335-333.2,334.9-333,334.7z"/>
	<path class="st2" d="M-314.5,334.7l13.2-13.2c0.2-0.2,0.3-0.5,0.3-0.7v-1c0-1.3-0.8-1.6-1.7-0.7l-14.2,14.2
		c-0.9,0.9-0.6,1.7,0.7,1.7h1C-315,335-314.7,334.9-314.5,334.7z"/>
</g>
</svg>
