<?xml version="1.0" standalone="no"?>
<!DOCTYPE svg PUBLIC "-//W3C//DTD SVG 1.1//EN" "http://www.w3.org/Graphics/SVG/1.1/DTD/svg11.dtd" >
<svg xmlns="http://www.w3.org/2000/svg">
<metadata></metadata>
<defs>
<font id="bpreplayregular" horiz-adv-x="1280" >
<font-face units-per-em="2048" ascent="1638" descent="-410" />
<missing-glyph horiz-adv-x="638" />
<glyph horiz-adv-x="2048" />
<glyph horiz-adv-x="2048" />
<glyph unicode="&#xd;" horiz-adv-x="2048" />
<glyph unicode=" "  horiz-adv-x="638" />
<glyph unicode="&#x09;" horiz-adv-x="638" />
<glyph unicode="&#xa0;" horiz-adv-x="638" />
<glyph unicode="!" horiz-adv-x="466" d="M0 102q0 43 29.5 73t72.5 30t73 -30t30 -73t-30 -72.5t-73 -29.5t-72.5 29.5t-29.5 72.5zM25 371v1114q0 88 75 88q74 0 74 -88v-1114q0 -76 -76 -76q-73 0 -73 76z" />
<glyph unicode="&#x22;" horiz-adv-x="694" d="M0 1186v301q0 88 76 88q74 0 74 -88v-301q0 -80 -76 -80q-74 0 -74 80zM285 1186v301q0 88 77 88q78 0 78 -88v-301q0 -80 -80 -80q-75 0 -75 80z" />
<glyph unicode="#" horiz-adv-x="1353" d="M0 526q0 34 27 52t61 18h164l51 332h-151q-78 0 -78 69q0 64 78 64h167l58 434q9 76 65 76q28 0 50 -20.5t22 -47.5v-8l-61 -434h286l62 434q9 78 65 78q28 0 48 -19.5t20 -48.5v-10l-57 -434h143q33 0 56.5 -16.5t23.5 -49.5q0 -67 -90 -67h-150l-51 -332h147 q35 0 54.5 -18t19.5 -52t-25.5 -51.5t-56.5 -17.5h-155l-56 -357q-15 -100 -88 -100q-49 0 -49 55q0 3 1 10t1 11l55 381h-288l-52 -357q-15 -100 -88 -100q-51 0 -51 55q0 3 1 10.5t1 10.5l56 381h-142q-94 0 -94 69zM385 596h289l49 332h-287z" />
<glyph unicode="$" horiz-adv-x="1153" d="M0 1163q0 80 32 153t86 126t123.5 88.5t145.5 46.5v78q0 65 43 65t43 -61v-82q38 -1 92 -13.5t109 -34t93 -57.5t38 -77q0 -72 -70 -72q-22 0 -65.5 24.5t-97.5 50.5t-99 29v-516q88 -29 161.5 -70.5t134.5 -98.5t95.5 -133.5t34.5 -164.5q0 -117 -58.5 -219.5 t-157 -163.5t-210.5 -61q0 -49 2 -100q0 -56 -43 -56q-46 0 -49 62l4 94q-43 3 -97.5 14.5t-112.5 30.5t-97 49.5t-39 65.5q0 37 20.5 60.5t53.5 23.5t126 -45.5t146 -48.5v612q-78 20 -145.5 54.5t-122.5 84t-87 117t-32 145.5zM168 1190q0 -90 64 -154t155 -92v483 q-99 -19 -159 -85t-60 -152zM473 141q109 21 182.5 103.5t73.5 189.5q0 209 -256 295v-588z" />
<glyph unicode="%" horiz-adv-x="1691" d="M0 1204q0 159 93 263t249 104q153 0 246.5 -110.5t93.5 -268.5q0 -159 -92.5 -268t-247.5 -109q-103 0 -182.5 55.5t-119.5 143t-40 190.5zM139 1196q0 -105 53.5 -184.5t149.5 -79.5q99 0 154 75.5t55 182.5q0 110 -57 187t-152 77q-97 0 -150 -76.5t-53 -181.5zM369 39 q0 18 6 33l557 1429q24 62 80 62q27 0 44 -19.5t17 -46.5q0 -26 -12 -53l-572 -1444q-4 -11 -21.5 -21t-43.5 -10q-23 0 -39 19.5t-16 50.5zM758 385q0 161 94 266t252 105q152 0 243 -113.5t91 -271.5q0 -160 -89.5 -265.5t-244.5 -105.5q-157 0 -251.5 111.5t-94.5 273.5z M897 379q0 -108 54 -186t153 -78q98 0 151.5 74.5t53.5 179.5q0 65 -22.5 125.5t-70.5 102.5t-112 42q-97 0 -152 -77.5t-55 -182.5z" />
<glyph unicode="&#x26;" horiz-adv-x="1544" d="M0 426q0 287 360 518q-149 156 -149 309q0 147 93.5 232.5t219.5 85.5q56 0 107.5 -19.5t93 -57t66 -99t24.5 -138.5q0 -55 -20.5 -107.5t-56.5 -98t-67.5 -76.5t-72.5 -64l385 -438l123 205q47 80 102 80q31 0 50.5 -18.5t19.5 -47.5q0 -45 -31 -96l-166 -250l191 -209 q18 -21 18 -49q0 -35 -23.5 -61.5t-54.5 -26.5q-34 0 -57 20l-188 201q-176 -264 -455 -264q-235 0 -373.5 132t-138.5 337zM150 424q0 -90 53.5 -165t137 -116t173.5 -41q228 0 371 236l-441 489q-294 -194 -294 -403zM367 1282q0 -138 137 -264q166 127 166 258 q0 79 -44 118.5t-106 39.5t-107.5 -40t-45.5 -112z" />
<glyph unicode="'" horiz-adv-x="559" d="M0 1161q0 17 4 29l125 309q30 76 92 76q33 0 58.5 -24.5t25.5 -59.5q0 -20 -10 -43l-133 -301q-24 -55 -80 -55q-32 0 -57 20t-25 49z" />
<glyph unicode="(" horiz-adv-x="624" d="M0 721q0 228 71.5 436t219.5 369q27 22 57 22q28 0 48 -19t20 -46q0 -30 -25 -58q-124 -147 -186 -331t-62 -383q0 -210 61 -409.5t193 -336.5q19 -28 19 -55q0 -29 -19 -47.5t-47 -18.5q-34 0 -63 29q-99 99 -165.5 246.5t-94 296.5t-27.5 305z" />
<glyph unicode=")" horiz-adv-x="624" d="M-2 -90q0 28 18 55q132 137 193 336.5t61 409.5q0 200 -61.5 383.5t-185.5 330.5q-25 28 -25 58q0 27 20 46t48 19q30 0 57 -22q148 -161 219.5 -369t71.5 -436q0 -156 -27.5 -305t-94 -296.5t-165.5 -246.5q-29 -29 -64 -29q-28 0 -46.5 18.5t-18.5 47.5z" />
<glyph unicode="*" d="M276 997q0 27 23 50l211 110l-207 111q-27 24 -27 53q0 23 18.5 41t43.5 18q6 0 22 -4l205 -133l-12 240q6 28 22.5 42.5t38.5 14.5q20 0 37.5 -13t24.5 -38l-14 -246l194 125q15 10 37 10t40.5 -17.5t18.5 -41.5q0 -31 -30 -55l-213 -107l209 -102q34 -16 34 -56 q0 -24 -17.5 -41.5t-43.5 -17.5q-16 0 -31 6l-198 119l14 -219q0 -32 -18.5 -50t-43.5 -18q-23 0 -40.5 16.5t-20.5 45.5l10 225l-198 -123q-16 -4 -27 -4q-24 0 -43 17t-19 42z" />
<glyph unicode="+" d="M51 561q0 40 25 62t67 22h373v375q0 40 23 64t61 24q35 0 59.5 -25.5t24.5 -62.5v-375h373q46 0 73 -23t27 -59q0 -42 -25 -66t-75 -24h-373v-387q0 -36 -23.5 -61t-58.5 -25q-39 0 -62.5 23.5t-23.5 62.5v387h-373q-43 0 -67.5 22.5t-24.5 65.5z" />
<glyph unicode="," horiz-adv-x="557" d="M0 -205q0 12 6 27l137 334q27 65 84 65q31 0 53.5 -20.5t22.5 -48.5q0 -9 -4 -21l-156 -360q-21 -52 -67 -52q-30 0 -53 23t-23 53z" />
<glyph unicode="-" horiz-adv-x="823" d="M6 565q0 32 25 56t65 24h422q88 0 88 -80q0 -76 -88 -76h-422q-90 0 -90 76z" />
<glyph unicode="." horiz-adv-x="468" d="M0 102q0 43 29.5 73t72.5 30t73 -30t30 -73t-30 -72.5t-73 -29.5t-72.5 29.5t-29.5 72.5z" />
<glyph unicode="/" d="M266 39q0 18 6 33l557 1429q24 62 80 62q27 0 44.5 -19.5t17.5 -46.5q0 -24 -13 -53l-571 -1444q-4 -11 -21.5 -21t-43.5 -10q-23 0 -39.5 19.5t-16.5 50.5z" />
<glyph unicode="0" horiz-adv-x="1214" d="M2 768q0 87 11.5 175.5t35.5 180t65 171t94.5 142t130.5 98.5t167 36h8q91 0 167 -35.5t129 -97.5t93 -140.5t63.5 -170t34.5 -180t11 -175.5q0 -85 -12 -172.5t-36 -178.5t-65 -170t-94.5 -141.5t-129.5 -98.5t-165 -36q-111 0 -200 50t-145.5 130t-94 186.5t-53 212 t-15.5 214.5zM172 764q0 -101 19 -205.5t57 -202.5t106.5 -160.5t155.5 -62.5q71 0 129.5 44.5t95 112.5t61.5 154t35.5 165.5t10.5 150.5q0 83 -10.5 168.5t-35.5 173t-61.5 155t-94 110t-128.5 42.5q-77 0 -138 -45.5t-98 -114.5t-61.5 -158.5t-33.5 -170t-9 -156.5z" />
<glyph unicode="1" horiz-adv-x="757" d="M-4 1348q0 28 19 52t57 34q304 86 313 86q24 0 41.5 -12t24.5 -29q10 -20 10 -105v-1286q0 -39 -23 -63.5t-59 -24.5q-38 0 -61 24.5t-23 63.5v1253l-201 -57q-20 -4 -26 -4q-30 0 -51 19t-21 49z" />
<glyph unicode="2" horiz-adv-x="1077" d="M-4 1143q0 95 38 176t100 134t140.5 82.5t161.5 29.5q108 0 204.5 -46.5t159 -136.5t62.5 -202q0 -196 -145 -389l-484 -635h576q76 0 76 -76q0 -80 -78 -80h-678q-113 0 -113 74q0 34 31 76l557 757q90 123 90 258q0 109 -80 175.5t-186 66.5q-108 0 -186 -72.5 t-78 -201.5q0 -34 -22 -66.5t-60 -32.5q-40 0 -63 34.5t-23 74.5z" />
<glyph unicode="3" horiz-adv-x="1071" d="M-25 305q0 38 20.5 60t49.5 22q22 0 44 -14t32 -39q84 -195 268 -195q122 0 209.5 77t87.5 214q0 108 -62.5 194t-177.5 105q-24 4 -118 4q-95 3 -95 76q0 74 93 74q96 0 116 4q86 18 134.5 99.5t48.5 176.5q0 116 -65.5 185t-182.5 69q-88 0 -151.5 -59.5t-63.5 -145.5 q0 -46 -20 -74t-58 -28q-88 0 -88 109q0 134 114 243t277 109q183 0 294.5 -116.5t111.5 -287.5q0 -108 -44 -188.5t-126 -151.5q116 -72 173.5 -177.5t57.5 -223.5q0 -86 -32 -167t-90 -144.5t-146.5 -101.5t-194.5 -38q-117 0 -213 52.5t-151 132.5q-52 74 -52 145z" />
<glyph unicode="4" horiz-adv-x="1234" d="M-4 483q0 41 27 78l534 862q60 97 158 97q57 0 94 -40t37 -108v-829h98q76 0 76 -82q0 -72 -68 -72h-106v-293q0 -96 -78 -96q-37 0 -58.5 25t-21.5 71v291h-584q-52 0 -80 27.5t-28 68.5zM188 543h500v805z" />
<glyph unicode="5" horiz-adv-x="1116" d="M-14 233q0 35 19 54.5t46 19.5q40 0 64 -35q49 -63 135.5 -103t169.5 -40q96 0 173.5 50.5t118 128.5t40.5 165q0 66 -21.5 127t-62.5 110.5t-107 79t-147 29.5q-58 0 -116 -17.5t-87 -17.5q-84 0 -84 76q0 19 104 574q15 82 117 82h438q34 0 55 -26t21 -63 q0 -77 -76 -77h-421l-68 -396q72 17 156 17q90 0 166.5 -26.5t130 -72t91.5 -106.5t56 -130.5t18 -143.5q0 -97 -32 -188t-93 -165.5t-159.5 -119t-220.5 -44.5q-86 0 -166 24.5t-135.5 62.5t-89 83.5t-33.5 87.5z" />
<glyph unicode="6" horiz-adv-x="1110" d="M2 522q0 112 29 226t77 213t116 196.5t140.5 177.5t155.5 156q36 31 70 31q37 0 61.5 -22t24.5 -60q0 -26 -23 -49q-127 -118 -242.5 -266.5t-166.5 -254.5q55 65 125.5 87t154.5 22q111 0 205 -61t150.5 -172.5t56.5 -249.5t-56.5 -256t-165.5 -191.5t-249 -73.5 q-110 0 -199.5 45.5t-146 122t-87 174t-30.5 205.5zM162 492q0 -93 35 -175t108 -136t168 -54q141 10 224 116t83 246q0 65 -19.5 124t-57.5 107.5t-100.5 77.5t-141.5 29q-99 0 -168.5 -50t-100 -124t-30.5 -161z" />
<glyph unicode="7" horiz-adv-x="1110" d="M-4 1436q0 82 94 82h725q38 0 66 -27t28 -68q0 -25 -12 -55l-543 -1284q-38 -84 -98 -84q-37 0 -54.5 23.5t-17.5 56.5q0 27 11 49l520 1223h-625q-94 0 -94 84z" />
<glyph unicode="8" horiz-adv-x="1103" d="M-4 444q0 125 73 233t183 159q-94 58 -146.5 147.5t-52.5 200.5q0 159 118.5 268t283.5 109q169 0 280 -105.5t111 -271.5q0 -198 -199 -336q120 -57 191 -168t71 -242q0 -124 -59 -230t-163.5 -169.5t-229.5 -63.5q-204 0 -332.5 132.5t-128.5 336.5zM168 451 q0 -132 80 -223t209 -91q125 0 202.5 90t77.5 219q0 131 -81 221.5t-199 90.5q-125 0 -207 -91t-82 -216zM217 1174q0 -108 67 -185.5t173 -77.5q101 0 159 78t58 185q0 109 -65.5 172t-157.5 63t-163 -63t-71 -172z" />
<glyph unicode="9" horiz-adv-x="1124" d="M-6 1059q0 98 30.5 188t88.5 162.5t152.5 116t211.5 43.5q145 0 254.5 -74.5t166 -201t56.5 -285.5q0 -87 -14.5 -177t-53 -199t-98 -213.5t-156.5 -218t-222 -214.5q-29 -23 -64 -23q-31 0 -51.5 19t-20.5 47q0 45 39 80q140 122 259 273t153 247q-100 -90 -262 -90 q-109 0 -199.5 44.5t-148.5 118t-89.5 166t-31.5 191.5zM156 1049q0 -163 93 -260t224 -97q141 0 233.5 90.5t92.5 261.5q0 68 -20 131.5t-58.5 117t-103 86t-146.5 32.5q-63 0 -116.5 -22t-89.5 -58t-61 -83.5t-36.5 -97.5t-11.5 -101z" />
<glyph unicode=":" horiz-adv-x="464" d="M0 102q0 43 29.5 73t72.5 30t73 -30t30 -73t-30 -72.5t-73 -29.5t-72.5 29.5t-29.5 72.5zM0 819q0 43 29.5 73t72.5 30t73 -30t30 -73t-30 -72.5t-73 -29.5t-72.5 29.5t-29.5 72.5z" />
<glyph unicode=";" horiz-adv-x="557" d="M0 -205q0 -30 23 -53t53 -23q46 0 67 52l156 360q4 12 4 21q0 28 -22.5 48.5t-53.5 20.5q-57 0 -84 -65l-137 -334q-6 -15 -6 -27zM102 819q0 43 30 73t73 30t72.5 -30t29.5 -73t-29.5 -72.5t-72.5 -29.5t-73 29.5t-30 72.5z" />
<glyph unicode="&#x3c;" horiz-adv-x="1331" d="M39 571q0 58 72 93l931 434q40 16 70 16q28 0 46 -18.5t18 -46.5q0 -51 -68 -84l-844 -406l828 -401q40 -20 58.5 -40t18.5 -48q0 -30 -18 -49t-51 -19q-29 0 -80 23l-909 452q-72 35 -72 94z" />
<glyph unicode="=" d="M53 377q0 76 74 76h963q75 0 75 -74q0 -76 -75 -76h-963q-74 0 -74 74zM53 805q0 72 74 72h963q75 0 75 -78q0 -72 -75 -72h-963q-74 0 -74 78z" />
<glyph unicode="&#x3e;" horiz-adv-x="1331" d="M39 1049q0 28 17.5 46.5t45.5 18.5q30 0 70 -16l932 -434q72 -35 72 -93q0 -59 -72 -94l-909 -452q-51 -23 -80 -23q-33 0 -51.5 19t-18.5 49q0 28 19 48t59 40l827 401l-844 406q-67 33 -67 84z" />
<glyph unicode="?" horiz-adv-x="1017" d="M55 1188q0 78 32 143t84.5 106t116.5 63t130 22q95 0 175 -40.5t131.5 -126t51.5 -200.5q0 -77 -29.5 -163t-71 -158t-106 -153.5t-113.5 -135.5t-114 -119q-30 -27 -59 -27q-34 0 -54 21t-20 55q0 31 45 76q81 82 133 140.5t111.5 140t89.5 162t30 159.5q0 105 -62 160 t-148 55q-77 0 -136.5 -53.5t-66.5 -132.5q-4 -41 -25.5 -64.5t-50.5 -23.5q-30 0 -52 24.5t-22 69.5zM205 102q0 43 29.5 73t72.5 30t73 -30t30 -73t-30 -72.5t-73 -29.5t-72.5 29.5t-29.5 72.5z" />
<glyph unicode="@" horiz-adv-x="1798" d="M35 739q0 180 52.5 333.5t149.5 266t243.5 176.5t326.5 64q150 0 276 -45.5t217.5 -130.5t143 -212.5t51.5 -285.5q0 -153 -38.5 -277t-108 -195t-156.5 -71q-111 0 -205 117q-104 -114 -237 -114q-84 0 -151.5 33.5t-108.5 90t-62.5 126.5t-21.5 147q0 109 39 204 t122.5 158.5t196.5 63.5q109 0 199 -90q10 88 67 88q38 0 54 -24.5t16 -74.5v-423q0 -84 23.5 -124t62.5 -40q78 0 125 100.5t47 294.5q0 250 -156 399.5t-397 149.5q-196 0 -339.5 -92.5t-215.5 -250t-72 -358.5q0 -142 47.5 -262t129 -201t191.5 -126t234 -45 q89 0 172.5 14t175 55.5t150.5 106.5q38 41 76 41q25 0 41 -15t16 -39q0 -42 -27 -71q-73 -81 -184 -134.5t-216.5 -73.5t-213.5 -20q-150 0 -284 54t-234 151t-158.5 242.5t-58.5 318.5zM551 762q0 -105 55 -180.5t160 -75.5q122 0 184 104v357q-76 82 -162 82 q-74 0 -129 -42.5t-81.5 -106.5t-26.5 -138z" />
<glyph unicode="A" horiz-adv-x="1388" d="M0 72q0 17 8 41l463 1310q35 93 119 93t119 -93l479 -1310q8 -19 8 -43q0 -31 -18.5 -50.5t-51.5 -19.5q-55 0 -73 49l-107 262h-704l-84 -233q-28 -78 -92 -78q-33 0 -49.5 20.5t-16.5 51.5zM285 467h606l-299 840z" />
<glyph unicode="B" horiz-adv-x="1241" d="M0 100v1317q0 99 84 99h395q54 0 111.5 -12t116 -40t104.5 -68.5t75 -103t29 -137.5q0 -110 -65.5 -201.5t-165.5 -122.5q141 -22 245.5 -139t104.5 -266q0 -122 -60.5 -221t-159.5 -152t-214 -53h-481q-68 0 -90 16q-29 19 -29 84zM152 150h387q139 0 232 73t93 201 q0 99 -58 173t-147 109t-192 35h-315v-591zM152 881h266q61 0 119 14t108 42t80.5 76.5t30.5 110.5q0 109 -87 175.5t-202 66.5h-315v-485z" />
<glyph unicode="C" horiz-adv-x="1449" d="M-2 764q0 122 28 238t87 219.5t142 181t200 123t254 45.5q252 0 432 -168q39 -33 39 -74q0 -36 -21.5 -59t-52.5 -23q-39 0 -64 25q-65 65 -154 99t-186 34q-105 0 -194 -35t-151.5 -95.5t-106.5 -140.5t-65 -170.5t-21 -185.5q0 -97 21.5 -189.5t66.5 -174.5t108 -144.5 t152 -98.5t193 -36q194 0 335 141q23 23 52 23q37 0 55 -22t18 -54q0 -50 -30 -76q-195 -170 -439 -170q-136 0 -251.5 44t-196.5 119.5t-138.5 176t-84.5 214t-27 233.5z" />
<glyph unicode="D" horiz-adv-x="1349" d="M0 84v1333q0 99 119 99h405q117 0 217.5 -43.5t172 -117.5t122 -172t75 -207.5t24.5 -223.5q0 -144 -46.5 -279t-128.5 -240.5t-206.5 -169t-270.5 -63.5h-397q-51 0 -68.5 16t-17.5 68zM152 150h321q95 0 177 33.5t140.5 91t100 134.5t62 164t20.5 179 q0 119 -30.5 227.5t-87 195.5t-148.5 139t-205 52h-350v-1216z" />
<glyph unicode="E" horiz-adv-x="1007" d="M0 92v1331q0 93 84 93h623q75 0 75 -76q0 -74 -75 -74h-557v-504h458q76 0 76 -78q0 -71 -76 -71h-458v-563h573q88 0 88 -76q0 -74 -88 -74h-639q-54 0 -69 17.5t-15 74.5z" />
<glyph unicode="F" horiz-adv-x="927" d="M0 61v1356q0 99 84 99h604q76 0 76 -76q0 -74 -76 -74h-536v-541h405q76 0 76 -77q0 -74 -76 -74h-405v-613q0 -61 -78 -61q-74 0 -74 61z" />
<glyph unicode="G" horiz-adv-x="1470" d="M0 782q0 131 27.5 249t84 219t138 174.5t196 115t250.5 41.5q117 0 242.5 -48t214.5 -140q35 -35 35 -68q0 -32 -22 -59t-58 -27q-34 0 -72 33q-160 145 -348 145q-128 0 -228 -47.5t-163 -132.5t-96 -200t-33 -253q0 -119 32.5 -232.5t93.5 -207.5t160.5 -151.5 t221.5 -57.5q139 0 243 75.5t155.5 199.5t51.5 276v7.5v6.5v5t-0.5 4.5t-1.5 3.5t-2.5 3t-3.5 1h-420q-90 0 -90 74q0 75 97 75h444q34 0 59 -10.5t38.5 -26t21.5 -41t10 -49t2 -55.5q0 -145 -43.5 -274.5t-121.5 -225t-194 -151.5t-253 -56q-131 0 -242 46.5t-188.5 125.5 t-132 182.5t-80 218t-25.5 232.5z" />
<glyph unicode="H" horiz-adv-x="1386" d="M0 74v1370q0 76 74 76q76 0 76 -76v-598h845v598q0 76 74 76q78 0 78 -76v-1370q0 -74 -78 -74q-74 0 -74 74v620h-845v-620q0 -74 -74 -74q-76 0 -76 74z" />
<glyph unicode="I" horiz-adv-x="391" d="M0 76v1368q0 76 74 76q76 0 76 -76v-1368q0 -76 -76 -76q-74 0 -74 76z" />
<glyph unicode="J" horiz-adv-x="882" d="M0 133q0 78 70 78q18 0 86 -47t149 -47q88 0 137.5 50t49.5 138v1139q0 76 75 76q78 0 78 -76v-1139q0 -152 -94.5 -242t-247.5 -90q-163 0 -278 103q-25 22 -25 57z" />
<glyph unicode="K" horiz-adv-x="1214" d="M0 66v1390q0 64 74 64q78 0 78 -64v-747l714 788q16 19 47 19q32 0 58 -25.5t26 -56.5t-20 -48l-440 -481l475 -772q24 -21 24 -59q0 -33 -27.5 -54.5t-47.5 -21.5q-25 0 -39.5 8.5t-30.5 26.5l-465 760l-274 -289v-438q0 -66 -74 -66q-78 0 -78 66z" />
<glyph unicode="L" horiz-adv-x="1052" d="M0 117v1327q0 76 74 76q76 0 76 -76v-1294h657q76 0 76 -74q0 -76 -76 -76h-707q-100 0 -100 117z" />
<glyph unicode="M" horiz-adv-x="1859" d="M0 72q0 16 2 24l203 1274q24 154 131 154q103 0 143 -138l336 -1116l344 1116q20 65 58.5 99.5t89.5 34.5q106 0 127 -150l190 -1278q0 -3 1 -8t1 -8q0 -33 -21.5 -53.5t-54.5 -20.5q-70 0 -82 82l-174 1243l-399 -1239q-27 -88 -84 -88t-84 88l-385 1241l-188 -1243 q-6 -43 -25.5 -63.5t-56.5 -20.5q-33 0 -52.5 18t-19.5 52z" />
<glyph unicode="N" horiz-adv-x="1368" d="M0 78v1352q0 90 74 90q56 0 106 -74l799 -1176v1170q0 78 74 78q75 0 75 -78v-1350q0 -90 -73 -90q-60 0 -103 61l-802 1172v-1155q0 -78 -74 -78q-76 0 -76 78z" />
<glyph unicode="O" horiz-adv-x="1529" d="M0 776q0 120 25.5 234t79 215t129.5 177t183.5 120.5t233.5 44.5q128 0 237.5 -45t186.5 -121.5t131.5 -178.5t80.5 -216.5t26 -235.5q0 -100 -19 -196t-55 -184.5t-92.5 -163t-128 -129.5t-166 -86t-201.5 -31q-126 0 -233 44.5t-183 121t-130 178.5t-79.5 216.5 t-25.5 235.5zM158 780q0 -100 19.5 -194t60.5 -177.5t99 -146t140 -99t178 -36.5q122 0 219 54t156.5 144.5t91 203t31.5 235.5q0 99 -19.5 192.5t-60.5 176.5t-99.5 145.5t-141.5 98.5t-181 36q-97 0 -178.5 -35t-139 -95.5t-97.5 -141.5t-59 -172.5t-19 -188.5z" />
<glyph unicode="P" horiz-adv-x="1241" d="M0 76v1360q0 82 84 82h434q214 0 358 -130.5t144 -334.5q0 -127 -67 -232.5t-179 -165t-244 -59.5h-380v-520q0 -76 -74 -76q-76 0 -76 76zM150 745h372q145 0 243.5 85.5t98.5 224.5q0 145 -104 229t-271 84h-339v-623z" />
<glyph unicode="Q" horiz-adv-x="1552" d="M0 776q0 120 25.5 234t79 215t129.5 177t183.5 120.5t233.5 44.5q128 0 237.5 -45t186.5 -121.5t131.5 -178.5t80.5 -216.5t26 -235.5q0 -276 -129 -487q8 -8 139 -154q23 -26 23 -55t-19 -50.5t-51 -21.5q-29 0 -47 18l-142 144q-191 -184 -436 -184q-126 0 -233 44.5 t-183 121t-130 178.5t-79.5 216.5t-25.5 235.5zM160 780q0 -100 19.5 -194t60.5 -177.5t99 -146t140 -99t178 -36.5q199 0 340 141l-114 107q-29 29 -29 59q0 37 25 62.5t57 25.5q31 0 53 -22l98 -99q68 147 68 363q0 99 -19.5 192.5t-60.5 176.5t-99.5 145.5t-141.5 98.5 t-181 36q-97 0 -178.5 -35t-139 -95.5t-97.5 -141.5t-59 -172.5t-19 -188.5z" />
<glyph unicode="R" horiz-adv-x="1259" d="M0 92v1344q0 82 117 82h471q110 0 201 -36.5t148 -97t87.5 -136t30.5 -156.5q0 -134 -81.5 -243.5t-234.5 -150.5l287 -561q18 -38 18 -71q0 -31 -16.5 -49.5t-48.5 -18.5q-50 0 -70 41l-329 627h-430v-574q0 -92 -74 -92q-76 0 -76 92zM150 815h454q142 0 218.5 79 t76.5 191q0 113 -78.5 198t-216.5 85h-454v-553z" />
<glyph unicode="S" horiz-adv-x="1122" d="M0 168q0 70 70 70q32 0 71 -25q127 -78 273 -78q145 0 237 68t92 207q0 36 -18.5 70t-41.5 58t-71.5 56t-80 49.5t-95.5 50.5q-46 24 -68 35.5t-66 36t-66.5 40t-59 41t-56 46t-44 49.5t-36.5 56t-21 60t-9 68q0 195 131.5 309.5t329.5 114.5q173 0 348 -94 q58 -34 58 -94q0 -32 -20.5 -56t-51.5 -24q-7 0 -14.5 2t-16 6.5t-14 7.5t-17 10.5t-16.5 10.5q-50 31 -130.5 51.5t-158.5 20.5q-103 0 -181.5 -74.5t-78.5 -181.5q0 -24 9 -47t20.5 -41.5t36.5 -40t43 -35.5t55 -35.5t57 -32.5t65 -34.5t64 -34.5q160 -87 221 -133 q154 -117 160 -268v-13q0 -212 -140 -328.5t-361 -116.5q-195 0 -353 103q-55 37 -55 90z" />
<glyph unicode="T" horiz-adv-x="1087" d="M0 1442q0 76 82 76h756q77 0 77 -76q0 -74 -77 -74h-303v-1282q0 -86 -74 -86q-78 0 -78 86v1282h-301q-82 0 -82 74z" />
<glyph unicode="U" horiz-adv-x="1396" d="M0 584v846q0 88 84 88q82 0 82 -88v-830q0 -103 23 -183t61.5 -131t94 -84t116 -46t131.5 -13q91 0 160.5 21.5t126 71.5t86.5 141.5t30 222.5v830q0 88 84 88t84 -88v-846q0 -132 -31.5 -236.5t-85 -173t-130 -114t-161 -64.5t-182.5 -19t-181 19.5t-156.5 64.5 t-125 114t-81 173t-29.5 236z" />
<glyph unicode="V" horiz-adv-x="1351" d="M0 1448q0 74 78 74q59 0 80 -62l422 -1206l417 1206q22 60 72 60q33 0 61.5 -26t28.5 -58q0 -13 -6 -25l-457 -1284q-47 -127 -116 -127q-64 0 -105 109l-469 1302q-6 18 -6 37z" />
<glyph unicode="W" horiz-adv-x="1853" d="M0 1444q0 34 23 55t55 21q68 0 80 -76l211 -1239l348 1237q21 78 108 78q86 0 107 -78l338 -1235l205 1233q12 84 84 84q33 0 56 -22.5t23 -57.5q0 -13 -2 -19l-237 -1321q-9 -46 -45.5 -75t-83.5 -29q-42 0 -77 23t-48 71l-324 1186l-321 -1153q-18 -65 -55 -98t-80 -33 q-45 0 -82 33.5t-47 87.5l-234 1308q-2 6 -2 19z" />
<glyph unicode="X" horiz-adv-x="1355" d="M0 57q0 31 25 70l454 707l-401 565q-19 29 -19 51q0 30 21 50t51 20q41 0 68 -37l374 -514l330 512q24 37 64 37q29 0 51 -22t22 -52q0 -25 -16 -47l-369 -545l480 -721q28 -45 28 -76q0 -57 -59 -57q-45 0 -78 45l-461 670l-428 -668q-30 -47 -78 -47q-59 0 -59 59z" />
<glyph unicode="Y" horiz-adv-x="1163" d="M0 1448q0 72 68 72q39 0 63 -43l358 -598l351 594q27 47 73 47q68 0 68 -66q0 -22 -12 -43l-412 -698v-625q0 -88 -76 -88q-78 0 -78 88v625l-389 682q-14 25 -14 53z" />
<glyph unicode="Z" horiz-adv-x="1228" d="M0 86q0 42 23 80l796 1202h-713q-77 0 -77 74q0 76 77 76h824q102 0 102 -66q0 -38 -41 -100l-796 -1202h784q80 0 80 -72q0 -78 -80 -78h-907q-72 0 -72 86z" />
<glyph unicode="[" horiz-adv-x="552" d="M0 -27v1479q0 100 84 100h149q66 0 66 -73q0 -62 -63 -62h-86v-1413h86q63 0 63 -61q0 -70 -66 -70h-149q-84 0 -84 100z" />
<glyph unicode="\" horiz-adv-x="970" d="M0 1483q0 31 23 48t57 17q28 0 43.5 -18.5t32.5 -61.5l557 -1396q4 -12 4 -23q0 -26 -19.5 -44.5t-48.5 -18.5q-61 0 -88 69l-555 1397q-6 15 -6 31z" />
<glyph unicode="]" horiz-adv-x="552" d="M0 -51q0 55 53 55h97v1399q-5 0 -34 -1t-53 -1q-63 0 -63 65q0 70 63 70h154q82 0 82 -100v-1463q0 -100 -82 -100h-154q-63 0 -63 76z" />
<glyph unicode="^" d="M59 614q0 28 19 64l457 807q26 51 83 51q58 0 84 -51l441 -807q16 -32 16 -62q0 -34 -21 -51.5t-55 -17.5q-29 0 -50 19t-46 63l-369 690l-389 -690q-27 -48 -43.5 -65t-46.5 -17q-33 0 -56.5 17.5t-23.5 49.5z" />
<glyph unicode="_" horiz-adv-x="1091" d="M-76 -195q0 68 76 68h1022q80 0 80 -70q0 -65 -80 -65h-1022q-76 0 -76 67z" />
<glyph unicode="`" horiz-adv-x="559" d="M-2 1130q0 19 8 35l137 320q26 57 78 57q38 0 61 -19.5t23 -54.5q0 -8 -4 -20l-139 -315q-9 -21 -16.5 -34t-23 -25.5t-34.5 -12.5q-39 0 -64.5 19.5t-25.5 49.5z" />
<glyph unicode="a" horiz-adv-x="1140" d="M10 326q0 87 37.5 157.5t99.5 114t138.5 67t158.5 23.5q92 0 176.5 -26.5t133.5 -75.5v194q0 107 -82.5 171.5t-225.5 64.5q-75 0 -167 -24.5t-115 -24.5q-30 0 -50 15t-20 48q0 21 16 42.5t42 31.5q148 61 340 61q197 0 306 -104t109 -266v-736q0 -31 -20.5 -53 t-55.5 -22t-54 21t-21 52q-2 39 -2 70q-65 -69 -158 -106t-193 -37q-104 0 -191 36.5t-144.5 116t-57.5 189.5zM164 338q0 -104 76.5 -157.5t189.5 -53.5q126 0 224 61.5t98 161.5q0 89 -93 143t-215 54q-116 0 -198 -54t-82 -155z" />
<glyph unicode="b" horiz-adv-x="1179" d="M0 61v1457q0 79 76 79t76 -79v-580q34 97 133.5 166.5t203.5 69.5q92 0 171 -34.5t134.5 -93.5t95 -137t58.5 -165t19 -177q0 -114 -31 -218.5t-88.5 -188.5t-150.5 -134.5t-208 -50.5q-111 0 -202 54t-135 149v-119q0 -37 -23 -59.5t-55 -22.5q-74 0 -74 84zM160 571 q0 -85 20 -163.5t60 -144t107 -105t153 -39.5q81 0 143 39.5t97 105.5t52 141.5t17 157.5q0 64 -10 126.5t-33.5 124t-58 108t-88.5 75.5t-119 29q-86 0 -153 -40.5t-106.5 -107t-60 -145t-20.5 -162.5z" />
<glyph unicode="c" horiz-adv-x="1064" d="M0 569q0 127 43.5 236t117 183.5t172.5 116.5t208 42q146 0 243 -45q31 -14 50.5 -34t19.5 -40q0 -34 -19 -56t-49 -22q-8 0 -20 4q-44 19 -108.5 33t-114.5 14q-167 0 -277 -122.5t-110 -319.5q0 -180 115 -308t278 -128q125 0 229 70q11 8 27 8q23 0 42 -19.5t19 -46.5 q0 -37 -49 -76q-127 -82 -272 -82q-151 0 -276 77.5t-197 213.5t-72 301z" />
<glyph unicode="d" horiz-adv-x="1191" d="M0 559q0 90 18.5 177.5t57.5 166.5t94.5 139.5t134 96t170.5 35.5q100 0 196 -50.5t138 -140.5v537q0 79 78 79q74 0 74 -79v-1481q0 -68 -74 -68q-78 0 -78 70v137q-58 -91 -143 -148t-191 -57q-93 0 -171.5 32.5t-134 88t-94 130t-57 159.5t-18.5 176zM158 557 q0 -86 20 -165t58 -142.5t99.5 -101t137.5 -37.5q64 0 124.5 31.5t108.5 88t77.5 144.5t29.5 192q0 105 -28 193t-75 144.5t-106 88t-123 31.5q-77 0 -140 -40t-102 -107t-60 -149.5t-21 -170.5z" />
<glyph unicode="e" horiz-adv-x="1236" d="M0 573q0 114 33.5 221.5t94.5 193t157 137t211 51.5q148 0 256 -66t162.5 -181t54.5 -265q0 -89 -23.5 -127.5t-91.5 -38.5h-692q0 -138 115 -254.5t251 -116.5q89 0 150.5 22t128.5 82q40 37 88 37q31 0 49.5 -17.5t18.5 -51.5q0 -26 -15 -41q-145 -183 -420 -183 q-123 0 -224.5 48t-167 130t-101 190t-35.5 230zM164 645h653q0 161 -86 270t-229 109q-145 0 -241.5 -111t-96.5 -268z" />
<glyph unicode="f" horiz-adv-x="704" d="M0 1055q0 80 84 80h96q0 189 69 287t230 98q90 0 90 -72q0 -68 -90 -68q-83 0 -116 -58.5t-33 -186.5q65 0 131 2q84 0 84 -78q0 -80 -88 -80h-127v-905q0 -74 -76 -74q-74 0 -74 74v907h-96q-84 0 -84 74z" />
<glyph unicode="g" horiz-adv-x="1198" d="M0 578q0 116 33 222t94 190t158 134t215 50q95 0 190 -57t127 -136v131q0 68 74 68q78 0 78 -72v-1030q0 -130 -41.5 -235.5t-111 -171t-156.5 -100t-183 -34.5q-214 0 -360 92q-41 25 -41 76q0 33 20 56.5t54 23.5q11 0 22.5 -3.5t17.5 -6.5t20 -11t17 -10 q114 -63 244 -63q71 0 132 22.5t109.5 66t76.5 115.5t28 164v105q-37 -93 -126 -140t-191 -47q-96 0 -178 33t-140.5 90t-100 133.5t-61.5 164t-20 180.5zM158 580q0 -110 29.5 -200t77.5 -145.5t107.5 -85.5t123.5 -30q134 0 230.5 119.5t96.5 334.5q0 108 -28.5 195.5 t-76 142t-106.5 84t-123 29.5q-63 0 -121 -28.5t-105.5 -82t-76 -140t-28.5 -193.5z" />
<glyph unicode="h" horiz-adv-x="1077" d="M0 74v1446q0 79 74 79q76 0 76 -79v-525q50 89 129.5 132.5t171.5 43.5q75 0 147.5 -28.5t129.5 -78t92.5 -124t35.5 -158.5v-708q0 -74 -76 -74q-73 0 -73 74v643q0 146 -81.5 226.5t-193.5 80.5q-114 0 -198 -81.5t-84 -225.5v-643q0 -74 -76 -74q-74 0 -74 74z" />
<glyph unicode="i" horiz-adv-x="471" d="M0 1505q0 43 29.5 73t72.5 30t73 -30t30 -73t-30 -72.5t-73 -29.5t-72.5 29.5t-29.5 72.5zM31 76v1011q0 76 75 76q80 0 80 -76v-1011q0 -76 -77 -76q-78 0 -78 76z" />
<glyph unicode="j" horiz-adv-x="430" d="M-213 -420q0 -72 90 -72t150 25.5t93 78t46.5 120t13.5 162.5v1193q0 74 -76 74q-77 0 -77 -74v-1193q0 -55 -2.5 -89.5t-11.5 -67.5t-25 -50.5t-43.5 -28t-67.5 -10.5q-90 0 -90 -68zM0 1505q0 43 29.5 73t72.5 30t73 -30t30 -73t-30 -72.5t-73 -29.5t-72.5 29.5 t-29.5 72.5z" />
<glyph unicode="k" horiz-adv-x="1048" d="M-2 74v1448q0 75 78 75q76 0 76 -75v-953l583 551q22 19 51 19q32 0 55 -19.5t23 -50.5t-43 -74l-327 -307q35 -49 170.5 -239t205.5 -291q33 -59 33 -86q0 -36 -19.5 -56t-49.5 -20q-23 0 -44.5 12t-33.5 33l-381 543l-223 -203v-307q0 -74 -78 -74q-76 0 -76 74z" />
<glyph unicode="l" horiz-adv-x="419" d="M0 76v1448q0 78 74 78q78 0 78 -78v-1448q0 -76 -76 -76t-76 76z" />
<glyph unicode="m" horiz-adv-x="1722" d="M0 78v987q0 90 76 90t76 -84v-80q41 82 123.5 132.5t173.5 50.5q101 0 186 -59.5t123 -156.5q50 98 147.5 157t212.5 59q160 0 271.5 -102.5t111.5 -260.5v-733q0 -74 -76 -74q-77 0 -77 74v667q0 115 -64.5 193t-173.5 78q-127 0 -207 -94.5t-80 -227.5v-616 q0 -76 -73 -76q-76 0 -76 76v667q0 116 -65 191.5t-175 75.5q-127 0 -205.5 -92.5t-78.5 -225.5v-616q0 -76 -74 -76q-76 0 -76 76z" />
<glyph unicode="n" horiz-adv-x="1079" d="M0 74v999q0 80 74 80q76 0 76 -80v-78q49 89 130.5 134t176.5 45q100 0 190.5 -46t149.5 -137.5t59 -208.5v-708q0 -74 -76 -74q-73 0 -73 74v643q0 146 -81.5 226.5t-193.5 80.5q-114 0 -198 -81.5t-84 -225.5v-643q0 -74 -76 -74q-74 0 -74 74z" />
<glyph unicode="o" horiz-adv-x="1208" d="M0 575q0 116 32.5 222.5t92.5 191t156.5 135t214.5 50.5t214 -52.5t156.5 -140t92.5 -196t32 -224.5q0 -117 -32.5 -221t-93 -185.5t-156 -129.5t-213.5 -48q-95 0 -176.5 33t-139.5 90t-99 133t-61 163t-20 179zM160 590q0 -82 20 -162.5t59 -151t106 -114t151 -43.5 t150.5 36.5t106.5 98t60.5 137t20.5 158.5q0 64 -12.5 129.5t-40 128t-66.5 111t-95.5 78.5t-123.5 30q-85 0 -151.5 -37.5t-105.5 -100.5t-59 -139t-20 -159z" />
<glyph unicode="p" horiz-adv-x="1179" d="M0 -387v1481q0 80 76 80t76 -80v-156q34 97 133.5 166.5t203.5 69.5q92 0 171 -34.5t134.5 -93.5t95 -137t58.5 -165t19 -177q0 -114 -31 -218.5t-88.5 -188.5t-150.5 -134.5t-208 -50.5q-111 0 -202 54t-135 149v-567q0 -37 -23 -59.5t-55 -22.5q-74 0 -74 84zM164 567 q0 -85 20 -163.5t60 -144t107 -105t153 -39.5q81 0 143 39.5t97 105.5t52 141.5t17 157.5q0 64 -10 126.5t-33.5 124t-58 108t-88.5 75.5t-119 29q-86 0 -153 -40.5t-106.5 -107t-60 -145t-20.5 -162.5z" />
<glyph unicode="q" horiz-adv-x="1189" d="M0 559q0 90 18.5 177.5t57.5 166.5t94.5 139.5t134 96t170.5 35.5q100 0 196 -50.5t138 -140.5v111q0 80 78 80q74 0 74 -80v-1497q0 -68 -74 -68q-78 0 -78 70v579q-58 -91 -143 -148t-191 -57q-93 0 -171.5 32.5t-134 88t-94 130t-57 159.5t-18.5 176zM156 559 q0 -86 20 -165t58 -142.5t99.5 -101t137.5 -37.5q64 0 124.5 31.5t108.5 88t77.5 144.5t29.5 192q0 105 -28 193t-75 144.5t-106 88t-123 31.5q-77 0 -140 -40t-102 -107t-60 -149.5t-21 -170.5z" />
<glyph unicode="r" horiz-adv-x="858" d="M0 74v999q0 80 74 80q76 0 76 -80v-98q55 97 151.5 148t206.5 51q75 0 112 -28t37 -67q0 -32 -22.5 -56t-56.5 -24q-26 0 -64.5 7.5t-75.5 7.5q-103 0 -195.5 -91t-92.5 -206v-643q0 -74 -76 -74q-74 0 -74 74z" />
<glyph unicode="s" horiz-adv-x="1032" d="M16 160q0 41 18.5 62.5t49.5 21.5q26 0 59 -23q141 -92 283 -92q44 0 86.5 9.5t80.5 29t61.5 56t23.5 83.5q0 36 -20.5 67t-58 55t-73.5 41t-84 34q-48 18 -82 31t-80.5 34t-78 39.5t-66.5 45t-56 53t-34.5 60t-13.5 69.5q0 111 58.5 188t149 111t203.5 34q183 0 318 -73 q39 -20 39 -72q0 -34 -20 -53t-50 -19q-22 0 -45 13q-38 22 -107 37.5t-139 15.5q-65 0 -118 -15t-90 -53.5t-37 -95.5q0 -20 8 -37.5t28.5 -34.5t37 -29t53 -28.5t56 -25t66 -27t64.5 -25.5q49 -20 73 -30.5t67 -32t65.5 -37.5t52.5 -41.5t45 -51t26 -60t11 -72.5 q0 -73 -25 -132.5t-66 -98t-96.5 -65t-114.5 -38t-122 -11.5q-189 0 -379 121q-27 18 -27 62z" />
<glyph unicode="t" horiz-adv-x="794" d="M0 1065q0 68 63 68h76v167q0 74 74 74q76 0 76 -74v-167h180q80 0 80 -70t-76 -70h-184v-626q0 -55 2.5 -89.5t11 -67.5t24.5 -50.5t43.5 -28t67.5 -10.5q90 0 90 -68q0 -71 -90 -71t-149.5 25.5t-92 78t-45 119t-12.5 162.5v628h-65q-74 0 -74 70z" />
<glyph unicode="u" horiz-adv-x="1083" d="M2 430v641q0 76 74 76q76 0 76 -76l2 -575q0 -91 14.5 -159t38 -108.5t58.5 -64.5t70 -32.5t79 -8.5q59 0 116 29.5t103 84t74 140.5t28 190v512q0 80 70 80q74 0 74 -80v-1040q0 -68 -74 -68q-78 0 -78 70v137q-64 -106 -151 -159.5t-181 -53.5q-79 0 -147 26t-124.5 79 t-89 145.5t-32.5 214.5z" />
<glyph unicode="v" horiz-adv-x="1042" d="M0 1067q0 33 21.5 52.5t54.5 19.5q60 0 88 -90l256 -783l260 785q30 88 92 88q33 0 52.5 -18.5t19.5 -53.5q0 -18 -6 -33l-334 -973q-21 -61 -90 -61q-61 0 -82 61l-326 971q-6 18 -6 35z" />
<glyph unicode="w" horiz-adv-x="1779" d="M0 1055q0 82 76 82q62 0 86 -64l256 -817l276 807q12 34 37 53t55 19q33 0 65 -19.5t40 -52.5l262 -799l250 811q21 64 86 64q37 0 52 -19t15 -59q0 -21 -10 -51q0 -22 -307 -932q-27 -76 -92 -76q-61 0 -88 82l-275 805l-264 -811q-24 -78 -98 -78q-76 0 -103 84 q-319 948 -319 971z" />
<glyph unicode="x" horiz-adv-x="1128" d="M0 68q0 41 35 88l336 456l-291 389q-23 33 -23 60q0 32 23 53t55 21q51 0 80 -45l250 -359l254 361q29 45 78 45q33 0 56.5 -21t23.5 -51t-25 -61l-301 -379l340 -461q39 -51 39 -96q0 -68 -66 -68q-57 0 -102 63l-307 426l-308 -428q-39 -57 -88 -57q-59 0 -59 64z" />
<glyph unicode="y" horiz-adv-x="1069" d="M0 1059q0 76 72 76q67 0 88 -72l270 -836l281 846q21 64 86 64q73 0 73 -74q0 -31 -6 -47l-506 -1413q-23 -68 -92 -68t-69 74q0 24 8 45l139 360l-334 996q-10 30 -10 49z" />
<glyph unicode="z" horiz-adv-x="1081" d="M0 72q0 38 37 90l573 823h-508q-75 0 -75 76q0 74 75 74h625q92 0 92 -62q0 -43 -43 -104l-577 -824h577q76 0 76 -71q0 -74 -76 -74h-657q-119 0 -119 72z" />
<glyph unicode="{" horiz-adv-x="800" d="M0 719q0 9 3 16.5t6 13t11 11t13 9t16.5 8t16.5 6.5t18.5 6.5t17.5 5.5q111 47 111 319q0 79 -8 172q0 76 20 127t59.5 77t85.5 36t111 10q26 0 46 -19.5t20 -43.5q0 -54 -88 -54q-66 0 -90.5 -41t-24.5 -114q0 -28 4 -85t4 -79q0 -293 -172 -387q53 -19 88.5 -57.5 t52 -92.5t23 -105t6.5 -116q0 -32 -2 -90t-2 -80q0 -78 27.5 -122.5t105.5 -47.5q68 -3 68 -53q0 -60 -66 -60q-71 0 -123 13.5t-82 34t-48 52t-23.5 62t-5.5 68.5q0 30 4 101.5t4 111.5q0 270 -105 319l-20 4t-21 4.5t-18 5t-18 8t-12.5 11t-9.5 15.5t-3 20z" />
<glyph unicode="|" horiz-adv-x="403" d="M0 39v1546q0 88 76 88q74 0 74 -88v-1546q0 -76 -76 -76q-74 0 -74 76z" />
<glyph unicode="}" horiz-adv-x="800" d="M0 -51q0 50 68 53q78 3 105.5 47.5t27.5 122.5q0 22 -2 80t-2 90q0 65 6.5 116t23 105t52 92.5t88.5 57.5q-172 94 -172 387q0 22 4 79t4 85q0 73 -24.5 114t-90.5 41q-88 0 -88 54q0 24 20 43.5t46 19.5q65 0 111 -10t85.5 -36t59.5 -77t20 -127q-8 -93 -8 -172 q0 -273 110 -319q4 -1 17.5 -5.5t19 -6.5t16.5 -6.5t16.5 -8t13 -9t11 -11t6.5 -13t3 -16.5q0 -11 -3 -20t-10 -15.5t-12.5 -11t-17.5 -8t-18.5 -5t-21.5 -4.5l-20 -4q-104 -49 -104 -319q0 -40 4 -111.5t4 -101.5q0 -38 -5.5 -68.5t-23.5 -62t-48 -52t-82 -34t-123 -13.5 q-66 0 -66 60z" />
<glyph unicode="~" horiz-adv-x="1255" d="M0 465q0 45 43 102t109.5 97.5t126.5 40.5q57 0 122.5 -24.5t113.5 -53.5t103 -53.5t93 -24.5q37 0 66.5 24t46.5 52.5t44.5 52.5t61.5 24q71 0 71 -90q0 -67 -104 -149t-197 -82q-54 0 -113 24t-102.5 53t-99 53t-102.5 24q-62 0 -117 -74q-59 -80 -98 -80q-68 0 -68 84 z" />
<glyph unicode="&#xa3;" horiz-adv-x="1384" d="M0 784q0 78 76 78h184q-110 155 -110 316q0 91 37 162.5t100 114.5t140.5 65t164.5 22q89 0 174.5 -25.5t156.5 -72t117 -120.5t52 -163q0 -34 -21.5 -59t-52.5 -25q-53 0 -80 64q-11 78 -64.5 137t-125.5 87t-150 28q-112 0 -190 -59.5t-78 -168.5q0 -141 96 -303h274 q74 0 74 -76q0 -73 -74 -73h-235q33 -90 33 -178q0 -198 -205 -379h762q75 0 75 -78q0 -74 -75 -74h-895q-84 0 -84 72q0 42 67 112q95 101 143 184t48 185q0 70 -25 156h-233q-76 0 -76 71z" />
<glyph unicode="&#xa4;" horiz-adv-x="1640" d="M72 80q0 46 61 100l201 162q-31 79 -31 178q0 115 43 203l-213 172q-61 51 -61 100q0 27 20.5 41.5t46.5 14.5q34 0 78 -35l213 -178q113 104 275 104q154 0 270 -98l207 172q41 35 78 35q26 0 46.5 -14.5t20.5 -41.5q0 -50 -61 -100l-199 -160q53 -95 53 -215 q0 -106 -37 -194l183 -146q61 -50 61 -100q0 -27 -20.5 -41t-46.5 -14q-41 0 -78 34l-176 146q-58 -61 -136.5 -93t-158.5 -32q-86 0 -165 35t-138 102l-191 -158q-37 -34 -78 -34q-26 0 -46.5 14t-20.5 41zM436 518q0 -147 81 -229t194 -82q53 0 101.5 19t88 56t63 98 t23.5 138q0 71 -24 129.5t-64 94.5t-89.5 55.5t-102.5 19.5q-112 0 -191.5 -77t-79.5 -222z" />
<glyph unicode="&#xa5;" horiz-adv-x="1261" d="M0 1473q0 30 20.5 50.5t47.5 20.5q39 0 63 -43l371 -622l370 622q24 43 70 43q66 0 66 -63q0 -26 -19 -62l-256 -432h166q88 0 88 -78q0 -75 -88 -75h-258l-72 -121v-84h267q90 0 90 -78q0 -76 -90 -76h-267v-403q0 -86 -75 -86q-78 0 -78 86v403h-266q-89 0 -89 74 q0 33 24.5 56.5t64.5 23.5h266v84l-70 121h-244q-90 0 -90 73q0 33 25 56.5t65 23.5h156l-244 432q-14 25 -14 54z" />
<glyph unicode="&#xa6;" horiz-adv-x="403" d="M0 74v663q0 42 20.5 68t53.5 26q34 0 55 -19t21 -56v-682q0 -74 -76 -74q-74 0 -74 74zM0 983v616q0 42 21 68.5t53 26.5q33 0 54.5 -20.5t21.5 -57.5v-633q0 -76 -76 -76q-74 0 -74 76z" />
<glyph unicode="&#xa7;" horiz-adv-x="1099" d="M10 735q0 56 25.5 84.5t60.5 28.5q36 0 64 -28t28 -70q0 -55 35 -96t91.5 -68t124 -50t135.5 -49.5t124.5 -59t91.5 -85t35 -121.5q0 -84 -33.5 -150t-91 -107t-130.5 -62t-156 -21q-170 0 -318 80q-39 20 -39 72q0 34 22 55t52 21q22 0 45 -13q38 -22 107 -37.5 t139 -15.5q102 0 168.5 38t66.5 122q0 20 -7.5 37t-27 33t-36 27.5t-51.5 27t-55 23.5t-65 25t-65 25q-340 134 -340 334zM10 1225q0 84 33.5 150t91.5 107t131 62t156 21q169 0 317 -80q39 -20 39 -72q0 -34 -21.5 -55t-51.5 -21q-23 0 -46 13q-38 22 -106.5 37.5 t-138.5 15.5q-102 0 -169 -38t-67 -122q0 -20 7.5 -37t27.5 -33.5t35.5 -27.5t51.5 -27t54.5 -24t65.5 -25.5t65 -24.5q340 -134 340 -333q0 -56 -25.5 -84.5t-60.5 -28.5q-36 0 -64 28t-28 70q0 55 -35 96t-91.5 68t-124.5 50t-135.5 49.5t-124 59t-91.5 85t-35 121.5z" />
<glyph unicode="&#xa8;" horiz-adv-x="839" d="M0 1331q0 43 29.5 73t72.5 30t73 -30t30 -73t-30 -72.5t-73 -29.5t-72.5 29.5t-29.5 72.5zM410 1331q0 43 29.5 73t72.5 30t72.5 -30t29.5 -73t-29.5 -72.5t-72.5 -29.5t-72.5 29.5t-29.5 72.5z" />
<glyph unicode="&#xa9;" horiz-adv-x="1806" d="M0 745q0 167 57 310.5t158 245.5t245.5 159.5t313.5 57.5q224 0 400 -100t273 -277.5t97 -399.5t-98 -397t-274.5 -273t-401.5 -98q-224 0 -400 99t-273 275t-97 398zM158 750q0 -180 77 -325t219 -228.5t324 -83.5q181 0 322.5 82t218 225t76.5 323t-77 326 t-219.5 230.5t-324.5 84.5t-323 -83.5t-217 -227.5t-76 -323zM346 752q0 104 36.5 194.5t97.5 153.5t142.5 99t170.5 36q92 0 194 -45q25 -12 41 -30.5t16 -35.5q0 -28 -17 -48.5t-42 -20.5q-8 0 -16 4q-37 16 -90 27.5t-93 11.5q-136 0 -220.5 -97t-84.5 -260 q0 -86 36.5 -164.5t104.5 -128t150 -49.5q72 0 121 19q68 22 74 22q61 0 61 -59q0 -36 -33 -62q-65 -53 -207 -53q-99 0 -182.5 39.5t-140 106t-88 155t-31.5 185.5z" />
<glyph unicode="&#xab;" horiz-adv-x="933" d="M0 559q0 27 27 70l198 334q15 24 47 24q30 0 55 -22.5t25 -51.5q0 -17 -10 -34l-199 -318q4 -7 32.5 -55.5t77 -130.5t101.5 -174q4 -12 4 -15q0 -20 -27 -37.5t-57 -17.5q-33 0 -49 25l-198 333q-27 47 -27 70zM319 559q0 26 23 70l205 334q16 22 51 22q82 0 82 -63 q0 -23 -14 -43l-203 -318q16 -23 213 -360q4 -8 4 -15q0 -20 -27 -37.5t-57 -17.5q-33 0 -49 25l-205 333q-23 44 -23 70z" />
<glyph unicode="&#xac;" horiz-adv-x="1376" d="M0 565q0 32 24 56t64 24h948q86 0 86 -96v-303q0 -88 -73 -88q-34 0 -58 24t-24 64v243h-879q-88 0 -88 76z" />
<glyph unicode="&#xad;" horiz-adv-x="1570" />
<glyph unicode="&#xae;" horiz-adv-x="1804" d="M0 766q0 221 98 396.5t274.5 274.5t399.5 99q167 0 311 -59t244.5 -161.5t157.5 -246.5t57 -309q0 -222 -97 -397.5t-273 -274t-400 -98.5q-167 0 -311 59t-245 161.5t-158.5 246.5t-57.5 309zM150 764q0 -179 79.5 -324.5t224 -230t326.5 -84.5q276 0 444.5 175 t168.5 458q0 135 -45 252.5t-125 203t-197 134.5t-254 49q-182 0 -324.5 -83t-220 -227t-77.5 -323zM461 367v778q0 60 26 74q20 10 56 10h301q128 0 211 -80q82 -76 82 -182q0 -183 -228 -244q58 -83 121 -182q96 -152 96 -176q0 -30 -22.5 -46t-59.5 -16q-28 0 -46.5 15.5 t-34.5 48.5l-203 356h-166v-356q0 -64 -70 -64q-63 0 -63 64zM594 840h233q73 0 116.5 38t43.5 95q0 58 -44.5 98.5t-115.5 40.5h-233v-272z" />
<glyph unicode="&#xb0;" horiz-adv-x="655" d="M0 1436q0 84 54.5 144t148.5 60q91 0 148 -58.5t57 -147.5q0 -87 -59 -146t-146 -59q-89 0 -146 59t-57 148zM102 1434q0 -44 27 -73.5t76 -29.5q42 0 71 31t29 70q0 43 -27 73.5t-73 30.5t-74.5 -29.5t-28.5 -72.5z" />
<glyph unicode="&#xb1;" d="M59 741q0 78 84 78h373v326q0 80 78 80q36 0 62 -22t26 -58v-326h373q46 0 74 -24t28 -60q0 -78 -102 -78h-373v-346q0 -34 -25 -56t-61 -22q-80 0 -80 78v346h-373q-84 0 -84 84zM63 76q0 33 25.5 56.5t65.5 23.5h915q88 0 88 -78q0 -76 -88 -76h-915q-91 0 -91 74z" />
<glyph unicode="&#xb2;" horiz-adv-x="690" d="M-2 1309q0 94 66 152.5t153 58.5q84 0 148.5 -54.5t64.5 -138.5q0 -101 -72 -194l-241 -318h286q39 0 39 -39t-39 -39h-340q-55 0 -55 37q0 19 15 37l278 379q45 61 45 129q0 55 -39.5 88t-93.5 33t-92.5 -36t-38.5 -101q0 -16 -11.5 -33t-29.5 -17q-20 0 -31.5 17.5 t-11.5 38.5z" />
<glyph unicode="&#xb3;" horiz-adv-x="638" d="M-12 889q0 19 10.5 30t24.5 11q10 0 21 -7t15 -20q42 -96 136 -96q61 0 104 38.5t43 106.5q0 53 -31 96.5t-88 53.5q-3 0 -29.5 1t-29.5 1q-47 0 -47 37t45 37q3 0 29.5 1t29.5 1q42 8 66 49.5t24 89.5q0 58 -32.5 92.5t-90.5 34.5q-44 0 -76 -30t-32 -73q0 -51 -39 -51 q-43 0 -43 54q0 67 56.5 121.5t138.5 54.5q91 0 146.5 -57.5t55.5 -143.5q0 -96 -84 -170q58 -37 86.5 -90t28.5 -111q0 -91 -63.5 -158t-167.5 -67q-58 0 -106.5 26t-76.5 66q-24 35 -24 72z" />
<glyph unicode="&#xb5;" horiz-adv-x="1081" d="M-2 -408v1469q0 76 78 76q76 0 76 -76v-674q0 -107 71.5 -176.5t177.5 -69.5q135 0 219.5 95.5t84.5 236.5v588q0 76 77 76q76 0 76 -76v-973q0 -88 -76 -88q-36 0 -54.5 21t-20.5 57q-2 27 -2 72q-116 -166 -322 -166q-67 0 -131 29.5t-100 80.5v-502q0 -75 -78 -75 q-76 0 -76 75z" />
<glyph unicode="&#xb6;" horiz-adv-x="1177" d="M0 1147q0 193 126.5 295t375.5 102h420q28 -2 47.5 -21.5t19.5 -45.5q0 -28 -19.5 -48t-47.5 -20h-99v-1339q0 -28 -20 -49t-49 -21t-48.5 21t-19.5 49v1339h-154v-1339q0 -28 -20 -49t-49 -21t-47.5 20.5t-18.5 49.5v745q-183 0 -290 92.5t-107 239.5z" />
<glyph unicode="&#xb7;" horiz-adv-x="468" d="M0 717q0 43 29.5 72.5t72.5 29.5t73 -29.5t30 -72.5t-30 -73t-73 -30t-72.5 30t-29.5 73z" />
<glyph unicode="&#xbb;" horiz-adv-x="937" d="M0 178q0 10 6 19l213 364l-213 359q-6 9 -6 18q0 20 25 37.5t55 17.5q39 0 57 -30l199 -334q26 -42 26 -70q0 -25 -26 -70l-199 -333q-13 -23 -55 -23q-82 0 -82 45zM317 176q0 12 9 21l215 364l-205 318q-19 32 -19 55q0 59 72 59q46 0 64 -30l206 -334q25 -42 25 -70 t-25 -70l-206 -333q-13 -23 -60 -23q-76 0 -76 43z" />
<glyph unicode="&#xbd;" horiz-adv-x="1941" d="M-4 1399q0 22 14.5 40t42.5 25q227 64 236 64q37 0 49 -31q8 -16 8 -78v-964q0 -29 -16.5 -47.5t-44.5 -18.5q-29 0 -46.5 18.5t-17.5 47.5v940l-151 -43q-6 -2 -19 -2q-24 0 -39.5 13t-15.5 36zM391 47q0 17 4 25l559 1444q8 23 28 35t42 12q25 0 41 -15t16 -43 q0 -17 -6 -35l-565 -1441q-14 -41 -55 -41q-26 0 -45 16t-19 43zM1071 856q0 141 100 229.5t232 88.5q81 0 153.5 -35t119 -102.5t46.5 -151.5q0 -149 -110 -293l-363 -475h432q58 0 58 -58q0 -59 -60 -59h-508q-84 0 -84 55q0 25 23 58l418 567q67 92 67 194q0 81 -60 131 t-138 50q-81 0 -140 -54.5t-59 -150.5q0 -27 -16.5 -50.5t-44.5 -23.5q-30 0 -48 25.5t-18 54.5z" />
<glyph unicode="&#x2000;" horiz-adv-x="860" />
<glyph unicode="&#x2001;" horiz-adv-x="1720" />
<glyph unicode="&#x2002;" horiz-adv-x="860" />
<glyph unicode="&#x2003;" horiz-adv-x="1720" />
<glyph unicode="&#x2004;" horiz-adv-x="573" />
<glyph unicode="&#x2005;" horiz-adv-x="430" />
<glyph unicode="&#x2006;" horiz-adv-x="286" />
<glyph unicode="&#x2007;" horiz-adv-x="286" />
<glyph unicode="&#x2008;" horiz-adv-x="215" />
<glyph unicode="&#x2009;" horiz-adv-x="344" />
<glyph unicode="&#x200a;" horiz-adv-x="95" />
<glyph unicode="&#x2010;" horiz-adv-x="823" d="M6 565q0 32 25 56t65 24h422q88 0 88 -80q0 -76 -88 -76h-422q-90 0 -90 76z" />
<glyph unicode="&#x2011;" horiz-adv-x="823" d="M6 565q0 32 25 56t65 24h422q88 0 88 -80q0 -76 -88 -76h-422q-90 0 -90 76z" />
<glyph unicode="&#x2012;" horiz-adv-x="823" d="M6 565q0 32 25 56t65 24h422q88 0 88 -80q0 -76 -88 -76h-422q-90 0 -90 76z" />
<glyph unicode="&#x2013;" horiz-adv-x="1466" d="M0 565q0 32 24 56t64 24h1036q88 0 88 -80q0 -76 -88 -76h-1036q-88 0 -88 76z" />
<glyph unicode="&#x2014;" horiz-adv-x="1871" d="M0 565q0 32 24 56t64 24h1442q88 0 88 -80q0 -76 -88 -76h-1442q-88 0 -88 76z" />
<glyph unicode="&#x2018;" horiz-adv-x="557" d="M0 1479q0 28 24 47.5t56 19.5q45 0 63 -41l154 -360q8 -11 8 -25q0 -27 -26 -49t-52 -22q-27 0 -49.5 21t-34.5 50l-137 334q-6 12 -6 25z" />
<glyph unicode="&#x2019;" horiz-adv-x="557" d="M0 1120q0 14 8 25l154 360q18 41 63 41q32 0 56 -19.5t24 -47.5q0 -13 -6 -25l-137 -334q-12 -29 -34.5 -50t-49.5 -21q-26 0 -52 22t-26 49z" />
<glyph unicode="&#x201a;" horiz-adv-x="557" d="M0 -203q0 13 6 25l137 334q11 27 35.5 46t52.5 19q26 0 50 -19.5t24 -45.5q0 -14 -8 -25l-154 -360q-18 -41 -63 -41q-32 0 -56 19.5t-24 47.5z" />
<glyph unicode="&#x201c;" horiz-adv-x="890" d="M0 1479q0 28 24 47.5t56 19.5q45 0 63 -41l154 -360q8 -11 8 -25q0 -27 -26 -49t-52 -22q-27 0 -49.5 21t-34.5 50l-137 334q-6 12 -6 25zM348 1479q0 28 24 47.5t56 19.5q46 0 64 -41l153 -360q8 -11 8 -25q0 -27 -26 -49t-52 -22q-27 0 -49 21t-34 50l-138 334 q-6 12 -6 25z" />
<glyph unicode="&#x201d;" horiz-adv-x="890" d="M0 1120q0 14 8 25l154 360q18 41 63 41q32 0 56 -19.5t24 -47.5q0 -13 -6 -25l-137 -334q-12 -29 -34.5 -50t-49.5 -21q-26 0 -52 22t-26 49zM348 1120q0 14 8 25l154 360q18 41 63 41q32 0 56 -19.5t24 -47.5q0 -13 -6 -25l-137 -334q-12 -29 -34.5 -50t-49.5 -21 q-26 0 -52 22t-26 49z" />
<glyph unicode="&#x201e;" horiz-adv-x="888" d="M0 -203q0 13 6 25l137 334q11 27 36.5 47t53.5 20q26 0 49 -20t23 -47q0 -14 -8 -25l-154 -360q-18 -41 -63 -41q-32 0 -56 19.5t-24 47.5zM328 -203q0 13 6 25l137 334q11 27 36.5 46t53.5 19q26 0 49 -19t23 -46q0 -14 -8 -25l-154 -360q-18 -41 -63 -41 q-32 0 -56 19.5t-24 47.5z" />
<glyph unicode="&#x2022;" horiz-adv-x="1191" d="M117 707q0 154 98.5 254t253.5 100t253.5 -100t98.5 -254q0 -153 -99 -255t-253 -102t-253 101t-99 256z" />
<glyph unicode="&#x2026;" horiz-adv-x="1134" d="M0 102q0 43 29.5 73t72.5 30t73 -30t30 -73t-30 -72.5t-73 -29.5t-72.5 29.5t-29.5 72.5zM348 102q0 43 30 73t73 30t72.5 -30t29.5 -73t-29.5 -72.5t-72.5 -29.5t-73 29.5t-30 72.5zM676 102q0 43 29.5 73t72.5 30t73 -30t30 -73t-30 -72.5t-73 -29.5t-72.5 29.5 t-29.5 72.5z" />
<glyph unicode="&#x202f;" horiz-adv-x="344" />
<glyph unicode="&#x2039;" horiz-adv-x="1392" d="M0 567q0 57 72 92l932 435q40 16 63 16q20 0 35 -6q37 -15 37 -55q0 -54 -70 -88l-844 -406l828 -401q73 -37 73 -95q0 -59 -69 -59q-33 0 -76 18l-909 453q-72 38 -72 96z" />
<glyph unicode="&#x203a;" horiz-adv-x="1392" d="M0 1055q0 63 72 63q22 0 49 -10l928 -455q90 -47 90 -96q0 -56 -107 -108l-911 -437q-23 -10 -45 -10q-74 0 -74 72q0 57 66 88l827 385l-827 422q-68 35 -68 86z" />
<glyph unicode="&#x205f;" horiz-adv-x="430" />
<glyph unicode="&#x20ac;" horiz-adv-x="1597" d="M6 604q0 72 76 72h96q-4 58 -4 88q0 47 2 72h-94q-76 0 -76 71q0 72 76 72h115q27 123 83.5 228t141 187.5t203.5 129.5t260 47q252 0 432 -168q39 -33 39 -74q0 -36 -21.5 -59t-52.5 -23q-38 0 -63 25q-129 129 -340 129q-201 0 -330.5 -118t-177.5 -304h712 q80 0 80 -74q0 -69 -80 -69h-735q-2 -20 -2 -58q0 -52 6 -102h525q79 0 79 -74q0 -70 -79 -70h-494q26 -85 70 -155.5t105 -124.5t144 -84.5t179 -30.5q197 0 336 139q23 23 51 23q37 0 55 -22t18 -54q0 -50 -30 -76q-195 -170 -439 -170q-136 0 -251.5 43.5t-197.5 120.5 t-138 175.5t-84 215.5h-119q-76 0 -76 72z" />
<glyph unicode="&#x2122;" horiz-adv-x="1445" d="M0 1509q0 35 37 35h379q39 0 39 -37t-39 -37h-152v-649q0 -51 -37 -51q-39 0 -39 51v649h-151q-37 0 -37 39zM373 813v12l102 670q9 64 64 64q56 0 71 -56l168 -590l176 590q18 56 72 56q55 0 64 -64l102 -670v-10q0 -35 -35 -35q-37 0 -43 41l-92 633l-203 -633 q-15 -45 -41 -45q-28 0 -43 45l-194 633l-92 -633q-6 -43 -43 -43q-33 0 -33 35z" />
<glyph unicode="&#x25fc;" horiz-adv-x="1136" d="M0 0v1137h1137v-1137h-1137z" />
</font>
</defs>
</svg>
