<?xml version="1.0" encoding="utf-8"?>
<!-- Generator: Adobe Illustrator 18.1.0, SVG Export Plug-In . SVG Version: 6.00 Build 0)  -->
<!DOCTYPE svg PUBLIC "-//W3C//DTD SVG 1.1//EN" "http://www.w3.org/Graphics/SVG/1.1/DTD/svg11.dtd">
<svg version="1.1" id="Capa_1" xmlns="http://www.w3.org/2000/svg" xmlns:xlink="http://www.w3.org/1999/xlink" x="0px" y="0px"
	 viewBox="0 0 448 330" enable-background="new 0 0 448 330" xml:space="preserve">
<g>
	<g opacity="4.000000e-002">
		<path fill="#1E120D" d="M399.2,57.4H258c-0.9,0-1.6,0.7-1.6,1.6v140.2c0,0.9,0.7,1.6,1.6,1.6h141.2c0.9,0,1.6-0.7,1.6-1.6V59
			C400.8,58.1,400.1,57.4,399.2,57.4z"/>
		<path fill="#1E120D" d="M448,330V220.8h-25.5c-0.9,0-1.6,0.7-1.6,1.6V330H448z"/>
		<path fill="#1E120D" d="M399.2,220.8H258c-0.9,0-1.6,0.7-1.6,1.6V330h144.4V222.4C400.8,221.6,400.1,220.8,399.2,220.8z"/>
		<path fill="#1E120D" d="M234.7,220.8H93.5c-0.9,0-1.6,0.7-1.6,1.6V330h144.4V222.4C236.3,221.6,235.5,220.8,234.7,220.8z"/>
	</g>
	<path fill="#9B9E88" d="M238.4,275.3h-29.8c-0.2,0-0.3-0.1-0.3-0.3v-29.6c0-0.2,0.2-0.3,0.3-0.3h29.8c0.2,0,0.3,0.1,0.3,0.3V275
		C238.7,275.2,238.6,275.3,238.4,275.3z"/>
	<path fill="#9B9E88" d="M203.8,309.8H174c-0.2,0-0.3-0.1-0.3-0.3v-29.6c0-0.2,0.2-0.3,0.3-0.3h29.8c0.2,0,0.3,0.1,0.3,0.3v29.6
		C204.2,309.7,204,309.8,203.8,309.8z"/>
	<path fill="#9B9E88" d="M273.1,309.8h-29.8c-0.2,0-0.3-0.1-0.3-0.3v-29.6c0-0.2,0.2-0.3,0.3-0.3h29.8c0.2,0,0.3,0.1,0.3,0.3v29.6
		C273.5,309.7,273.3,309.8,273.1,309.8z"/>
	<path fill="#9B9E88" d="M238.4,309.8h-29.8c-0.2,0-0.3-0.1-0.3-0.3v-29.6c0-0.2,0.2-0.3,0.3-0.3h29.8c0.2,0,0.3,0.1,0.3,0.3v29.6
		C238.7,309.7,238.6,309.8,238.4,309.8z"/>
	<g>
		<g>
			<path fill="#9B9E88" d="M345.1,197.3l-27,12.7c-0.2,0.1-0.4,0-0.4-0.2L305,183c-0.1-0.2,0-0.4,0.2-0.4l27-12.7
				c0.2-0.1,0.4,0,0.4,0.2l12.6,26.8C345.3,197,345.3,197.2,345.1,197.3z"/>
			<path fill="#9B9E88" d="M376.1,183.4l-27,12.7c-0.2,0.1-0.4,0-0.4-0.2L336,169.1c-0.1-0.2,0-0.4,0.2-0.4l27-12.7
				c0.2-0.1,0.4,0,0.4,0.2l12.6,26.8C376.3,183.1,376.3,183.3,376.1,183.4z"/>
			<path fill="#9B9E88" d="M422.7,199l-27,12.7c-0.2,0.1-0.4,0-0.4-0.2l-12.6-26.8c-0.1-0.2,0-0.4,0.2-0.4l27-12.7
				c0.2-0.1,0.4,0,0.4,0.2l12.6,26.8C423,198.8,422.9,199,422.7,199z"/>
			<path fill="#9B9E88" d="M391.2,213.8l-27,12.7c-0.2,0.1-0.4,0-0.4-0.2l-12.6-26.8c-0.1-0.2,0-0.4,0.2-0.4l27-12.7
				c0.2-0.1,0.4,0,0.4,0.2l12.6,26.8C391.5,213.5,391.4,213.7,391.2,213.8z"/>
		</g>
	</g>
	<g>
		<path fill="#8D917C" d="M428.6,276.4l-28.9-7.4c-0.2,0-0.3-0.2-0.2-0.4l7.3-28.7c0-0.2,0.2-0.3,0.4-0.2l28.9,7.4
			c0.2,0,0.3,0.2,0.2,0.4l-7.3,28.7C429,276.3,428.8,276.4,428.6,276.4z"/>
		<path fill="#8D917C" d="M420.1,309.8l-28.9-7.4c-0.2,0-0.3-0.2-0.2-0.4l7.3-28.7c0-0.2,0.2-0.3,0.4-0.2l28.9,7.4
			c0.2,0,0.3,0.2,0.2,0.4l-7.3,28.7C420.5,309.8,420.3,309.9,420.1,309.8z"/>
		<path fill="#8D917C" d="M386.4,301.2l-28.9-7.4c-0.2,0-0.3-0.2-0.2-0.4l7.3-28.7c0-0.2,0.2-0.3,0.4-0.2l28.9,7.4
			c0.2,0,0.3,0.2,0.2,0.4l-7.3,28.7C386.8,301.2,386.6,301.3,386.4,301.2z"/>
		<path fill="#8D917C" d="M437.2,242.9l-28.9-7.4c-0.2,0-0.3-0.2-0.2-0.4l7.3-28.7c0-0.2,0.2-0.3,0.4-0.2l28.9,7.4
			c0.2,0,0.3,0.2,0.2,0.4l-7.3,28.7C437.5,242.9,437.4,243,437.2,242.9z"/>
	</g>
	<g>
		<path fill="#7D7F6E" d="M282.6,242l4.1,29.6c0,0.2-0.1,0.4-0.3,0.4l-29.3,4.1c-0.2,0-0.4-0.1-0.4-0.3l-4.1-29.6
			c0-0.2,0.1-0.4,0.3-0.4l29.3-4.1C282.4,241.6,282.6,241.8,282.6,242z"/>
		<path fill="#7D7F6E" d="M316.8,237.2l4.1,29.6c0,0.2-0.1,0.4-0.3,0.4l-29.3,4.1c-0.2,0-0.4-0.1-0.4-0.3l-4.1-29.6
			c0-0.2,0.1-0.4,0.3-0.4l29.3-4.1C316.6,236.8,316.8,237,316.8,237.2z"/>
		<path fill="#7D7F6E" d="M351,232.3l4.1,29.6c0,0.2-0.1,0.4-0.3,0.4l-29.3,4.1c-0.2,0-0.4-0.1-0.4-0.3l-4.1-29.6
			c0-0.2,0.1-0.4,0.3-0.4l29.3-4.1C350.8,232,351,232.2,351,232.3z"/>
		<path fill="#7D7F6E" d="M385.2,227.5l4.1,29.6c0,0.2-0.1,0.4-0.3,0.4l-29.3,4.1c-0.2,0-0.4-0.1-0.4-0.3l-4.1-29.6
			c0-0.2,0.1-0.4,0.3-0.4l29.3-4.1C385,227.2,385.2,227.4,385.2,227.5z"/>
	</g>
</g>
</svg>
