<?xml version="1.0" encoding="utf-8"?>
<!-- Generator: Adobe Illustrator 17.1.0, SVG Export Plug-In . SVG Version: 6.00 Build 0)  -->
<!DOCTYPE svg PUBLIC "-//W3C//DTD SVG 1.1//EN" "http://www.w3.org/Graphics/SVG/1.1/DTD/svg11.dtd">
<svg version="1.1"
	 id="svg2989" xmlns:dc="http://purl.org/dc/elements/1.1/" xmlns:cc="http://creativecommons.org/ns#" xmlns:rdf="http://www.w3.org/1999/02/22-rdf-syntax-ns#" xmlns:svg="http://www.w3.org/2000/svg" xmlns:sodipodi="http://sodipodi.sourceforge.net/DTD/sodipodi-0.dtd" xmlns:inkscape="http://www.inkscape.org/namespaces/inkscape" sodipodi:docname="circle_arrow_left_font_awesome.svg" inkscape:version="0.48.3.1 r9886"
	 xmlns="http://www.w3.org/2000/svg" xmlns:xlink="http://www.w3.org/1999/xlink" x="0px" y="0px" viewBox="82.9 12.9 154.3 154.3"
	 enable-background="new 82.9 12.9 154.3 154.3" xml:space="preserve">
<sodipodi:namedview  inkscape:cy="896" inkscape:cx="896" inkscape:zoom="0.13169643" showgrid="false" guidetolerance="10" gridtolerance="10" objecttolerance="10" bordercolor="#666666" pagecolor="#ffffff" borderopacity="1" id="namedview2995" inkscape:current-layer="svg2989" inkscape:window-maximized="0" inkscape:window-y="25" inkscape:window-x="0" inkscape:window-height="480" inkscape:pageshadow="2" inkscape:pageopacity="0" inkscape:window-width="640">
	</sodipodi:namedview>
<g id="g2991" transform="matrix(1,0,0,-1,129.08475,1277.8305)" opacity="0.5">
	<path id="path2993" inkscape:connector-curvature="0" d="M82.3,1181.4v12.9c0,1.7-0.6,3.2-1.9,4.5c-1.3,1.3-2.8,1.9-4.5,1.9H25.5
		l19,19c1.3,1.3,1.9,2.8,1.9,4.5s-0.6,3.2-1.9,4.5l-9.1,9.1c-1.2,1.2-2.7,1.8-4.5,1.8c-1.8,0-3.3-0.6-4.5-1.8l-36.4-36.4l-9.1-9.1
		c-1.2-1.2-1.8-2.7-1.8-4.5s0.6-3.3,1.8-4.5l9.1-9.1l36.4-36.4c1.2-1.2,2.7-1.8,4.5-1.8c1.8,0,3.3,0.6,4.5,1.8l9.1,9.1
		c1.2,1.2,1.8,2.7,1.8,4.5c0,1.8-0.6,3.3-1.8,4.5l-19,19h50.4c1.7,0,3.2,0.6,4.5,1.9C81.7,1178.2,82.3,1179.7,82.3,1181.4z
		 M108.1,1187.8c0-14-3.4-26.9-10.3-38.7c-6.9-11.8-16.3-21.2-28.1-28.1s-24.7-10.3-38.7-10.3S4,1114.1-7.8,1121
		s-21.2,16.3-28.1,28.1c-6.9,11.8-10.3,24.7-10.3,38.7s3.4,26.9,10.3,38.7c6.9,11.8,16.3,21.2,28.1,28.1s24.7,10.3,38.7,10.3
		s26.9-3.4,38.7-10.3s21.2-16.3,28.1-28.1C104.6,1214.7,108.1,1201.8,108.1,1187.8z"/>
</g>
</svg>
