<?xml version="1.0" encoding="utf-8"?>
<!-- Generator: Adobe Illustrator 18.1.0, SVG Export Plug-In . SVG Version: 6.00 Build 0)  -->
<!DOCTYPE svg PUBLIC "-//W3C//DTD SVG 1.1//EN" "http://www.w3.org/Graphics/SVG/1.1/DTD/svg11.dtd">
<svg version="1.1" id="Capa_1" xmlns="http://www.w3.org/2000/svg" xmlns:xlink="http://www.w3.org/1999/xlink" x="0px" y="0px"
	 viewBox="0 0 653.6 77.1" enable-background="new 0 0 653.6 77.1" xml:space="preserve">
<g opacity="0.23">
	<path d="M37.1,9.5c0,0.7,0,1.3-0.1,1.8c-0.1,0.5-0.2,0.9-0.4,1.2c-0.2,0.3-0.4,0.5-0.6,0.7c-0.2,0.1-0.5,0.2-0.7,0.2H9.4v24h24.5
		c0.3,0,0.5,0.1,0.7,0.2c0.2,0.1,0.4,0.3,0.6,0.6c0.2,0.3,0.3,0.7,0.4,1.2c0.1,0.5,0.1,1.1,0.1,1.9c0,0.7,0,1.3-0.1,1.8
		c-0.1,0.5-0.2,0.9-0.4,1.2c-0.2,0.3-0.4,0.5-0.6,0.7c-0.2,0.2-0.5,0.2-0.7,0.2H9.4v29.4c0,0.3-0.1,0.5-0.2,0.7
		C9,75.7,8.8,75.8,8.4,76C8,76.1,7.6,76.2,7,76.3c-0.6,0.1-1.3,0.1-2.3,0.1c-0.9,0-1.6,0-2.2-0.1C1.8,76.2,1.3,76.1,1,76
		c-0.4-0.1-0.6-0.3-0.8-0.5C0.1,75.2,0,74.9,0,74.7V9.2c0-1.4,0.4-2.4,1.1-3c0.7-0.6,1.5-0.8,2.4-0.8h31.8c0.3,0,0.5,0.1,0.7,0.2
		c0.2,0.1,0.4,0.4,0.6,0.7C36.8,6.7,37,7.1,37,7.6C37.1,8.1,37.1,8.8,37.1,9.5z"/>
	<path d="M92.5,74.7c0,0.3-0.1,0.5-0.2,0.7c-0.1,0.2-0.4,0.4-0.7,0.5c-0.3,0.1-0.8,0.3-1.3,0.3c-0.5,0.1-1.2,0.1-1.9,0.1
		c-0.8,0-1.5,0-2-0.1c-0.5-0.1-0.9-0.2-1.3-0.3c-0.3-0.1-0.5-0.3-0.6-0.5c-0.1-0.2-0.2-0.4-0.2-0.7v-6.5c-2.8,3.1-5.6,5.4-8.3,6.8
		c-2.7,1.4-5.5,2.1-8.3,2.1c-3.3,0-6-0.5-8.3-1.6s-4.1-2.6-5.4-4.5c-1.4-1.9-2.4-4.1-3-6.6c-0.6-2.5-0.9-5.5-0.9-9.1V25.6
		c0-0.3,0.1-0.5,0.2-0.7c0.1-0.2,0.4-0.4,0.7-0.5c0.4-0.2,0.8-0.3,1.4-0.3c0.6-0.1,1.3-0.1,2.2-0.1s1.6,0,2.2,0.1
		c0.6,0.1,1,0.2,1.4,0.3c0.3,0.2,0.6,0.3,0.7,0.5c0.1,0.2,0.2,0.4,0.2,0.7v28.6c0,2.9,0.2,5.2,0.6,6.9c0.4,1.7,1.1,3.2,1.9,4.4
		c0.9,1.2,1.9,2.2,3.3,2.8c1.3,0.7,2.8,1,4.6,1c2.3,0,4.5-0.8,6.7-2.4c2.2-1.6,4.6-4,7.1-7V25.6c0-0.3,0.1-0.5,0.2-0.7
		c0.1-0.2,0.4-0.4,0.7-0.5c0.4-0.2,0.8-0.3,1.4-0.3c0.6-0.1,1.3-0.1,2.2-0.1c0.9,0,1.6,0,2.2,0.1c0.6,0.1,1,0.2,1.4,0.3
		c0.3,0.2,0.6,0.3,0.7,0.5c0.2,0.2,0.2,0.4,0.2,0.7V74.7z"/>
	<path d="M118.2,74.7c0,0.3-0.1,0.5-0.2,0.7c-0.1,0.2-0.4,0.4-0.7,0.5c-0.3,0.1-0.8,0.3-1.4,0.3c-0.6,0.1-1.3,0.1-2.2,0.1
		c-0.9,0-1.6,0-2.2-0.1c-0.6-0.1-1-0.2-1.4-0.3c-0.3-0.1-0.6-0.3-0.7-0.5c-0.1-0.2-0.2-0.4-0.2-0.7v-73c0-0.3,0.1-0.5,0.2-0.8
		c0.1-0.2,0.4-0.4,0.7-0.5c0.3-0.1,0.8-0.3,1.4-0.3C112,0,112.8,0,113.6,0c0.9,0,1.7,0,2.2,0.1c0.6,0.1,1,0.2,1.4,0.3
		c0.3,0.1,0.6,0.3,0.7,0.5c0.1,0.2,0.2,0.5,0.2,0.8V74.7z"/>
	<path d="M143.8,74.7c0,0.3-0.1,0.5-0.2,0.7c-0.1,0.2-0.4,0.4-0.7,0.5c-0.3,0.1-0.8,0.3-1.4,0.3c-0.6,0.1-1.3,0.1-2.2,0.1
		c-0.9,0-1.6,0-2.2-0.1c-0.6-0.1-1-0.2-1.4-0.3c-0.3-0.1-0.6-0.3-0.7-0.5c-0.1-0.2-0.2-0.4-0.2-0.7v-73c0-0.3,0.1-0.5,0.2-0.8
		c0.1-0.2,0.4-0.4,0.7-0.5c0.3-0.1,0.8-0.3,1.4-0.3c0.6-0.1,1.3-0.1,2.2-0.1c0.9,0,1.7,0,2.2,0.1c0.6,0.1,1,0.2,1.4,0.3
		c0.3,0.1,0.6,0.3,0.7,0.5c0.1,0.2,0.2,0.5,0.2,0.8V74.7z"/>
	<path d="M254.5,74c-0.1,0.5-0.4,0.9-0.7,1.2c-0.3,0.3-0.7,0.5-1.2,0.7c-0.5,0.2-1.1,0.3-1.9,0.4c-0.7,0.1-1.7,0.1-2.8,0.1
		c-1.1,0-2.1,0-2.9-0.1c-0.8-0.1-1.4-0.2-1.9-0.4c-0.5-0.2-0.9-0.4-1.1-0.7c-0.3-0.3-0.5-0.7-0.6-1.2l-14.8-53.4h-0.1L212.9,74
		c-0.1,0.5-0.3,0.9-0.5,1.2c-0.3,0.3-0.6,0.5-1.1,0.7c-0.5,0.2-1.1,0.3-1.8,0.4c-0.7,0.1-1.7,0.1-2.9,0.1c-1.2,0-2.2,0-3-0.1
		c-0.8-0.1-1.5-0.2-2-0.4c-0.5-0.2-0.9-0.4-1.2-0.7c-0.3-0.3-0.5-0.7-0.6-1.2L181.1,8.7c-0.2-0.8-0.3-1.5-0.4-2
		c0-0.5,0.1-0.8,0.4-1.1c0.3-0.3,0.8-0.4,1.5-0.5c0.7-0.1,1.6-0.1,2.8-0.1c1.1,0,2,0,2.7,0.1c0.7,0.1,1.2,0.2,1.5,0.3
		c0.3,0.1,0.6,0.3,0.7,0.6c0.1,0.3,0.2,0.6,0.3,1l15.9,59.2h0.1l15.1-59.1c0.1-0.4,0.2-0.7,0.4-1c0.2-0.3,0.4-0.5,0.8-0.6
		c0.4-0.1,0.9-0.3,1.6-0.3c0.7-0.1,1.6-0.1,2.6-0.1c1,0,1.8,0,2.4,0.1c0.6,0.1,1.1,0.2,1.4,0.3c0.4,0.1,0.6,0.4,0.8,0.6
		c0.2,0.3,0.3,0.6,0.4,1l16.2,59.1h0.1l15.6-59.2c0.1-0.4,0.2-0.7,0.3-1c0.1-0.3,0.3-0.5,0.7-0.6c0.3-0.1,0.8-0.3,1.5-0.3
		c0.6-0.1,1.5-0.1,2.5-0.1c1.1,0,2,0,2.6,0.1c0.6,0.1,1.1,0.3,1.4,0.5c0.3,0.3,0.4,0.6,0.4,1.1c0,0.5-0.1,1.1-0.3,2L254.5,74z"/>
	<path d="M323.2,48c0,1.4-0.4,2.4-1.1,3c-0.7,0.6-1.5,0.9-2.4,0.9h-32.4c0,2.7,0.3,5.2,0.8,7.4s1.5,4.1,2.7,5.6
		c1.3,1.6,2.9,2.8,5,3.6c2,0.8,4.6,1.3,7.5,1.3c2.3,0,4.4-0.2,6.3-0.6s3.4-0.8,4.7-1.3c1.3-0.5,2.4-0.9,3.3-1.3
		c0.9-0.4,1.5-0.6,1.9-0.6c0.3,0,0.5,0.1,0.7,0.2c0.2,0.1,0.4,0.3,0.5,0.6c0.1,0.3,0.2,0.6,0.2,1.1c0.1,0.5,0.1,1,0.1,1.7
		c0,0.5,0,0.9-0.1,1.2c0,0.3-0.1,0.7-0.1,0.9c-0.1,0.3-0.1,0.5-0.3,0.7c-0.1,0.2-0.3,0.4-0.5,0.6c-0.2,0.2-0.8,0.5-1.8,1
		c-1,0.5-2.3,0.9-3.8,1.3c-1.6,0.4-3.4,0.8-5.4,1.2c-2.1,0.3-4.3,0.5-6.6,0.5c-4,0-7.6-0.6-10.6-1.7c-3-1.1-5.6-2.8-7.7-5
		c-2.1-2.2-3.6-5-4.7-8.4c-1.1-3.4-1.6-7.2-1.6-11.7c0-4.2,0.5-8,1.6-11.4c1.1-3.4,2.7-6.2,4.7-8.6s4.5-4.2,7.5-5.4
		c2.9-1.3,6.2-1.9,9.8-1.9c3.9,0,7.1,0.6,9.9,1.9c2.7,1.2,4.9,2.9,6.7,5c1.7,2.1,3,4.6,3.9,7.4c0.8,2.8,1.2,5.8,1.2,9V48z
		 M314.1,45.3c0.1-4.7-0.9-8.4-3.2-11.1c-2.2-2.7-5.5-4-9.9-4c-2.2,0-4.2,0.4-5.9,1.3c-1.7,0.8-3.1,1.9-4.2,3.3
		c-1.1,1.4-2,3-2.6,4.8c-0.6,1.8-1,3.8-1,5.8H314.1z"/>
	<path d="M382.1,49.5c0,4.3-0.5,8.1-1.4,11.5c-0.9,3.4-2.3,6.3-4.1,8.7c-1.8,2.4-4,4.2-6.6,5.5s-5.6,1.9-9,1.9c-1.6,0-3-0.2-4.3-0.5
		c-1.3-0.3-2.6-0.8-3.9-1.5c-1.3-0.7-2.5-1.6-3.8-2.6s-2.6-2.3-4-3.8v6c0,0.3-0.1,0.5-0.2,0.8s-0.4,0.4-0.7,0.5
		c-0.3,0.1-0.7,0.2-1.2,0.3c-0.5,0.1-1.1,0.1-1.9,0.1c-0.7,0-1.3,0-1.9-0.1c-0.5-0.1-0.9-0.2-1.3-0.3c-0.3-0.1-0.5-0.3-0.7-0.5
		c-0.1-0.2-0.2-0.5-0.2-0.8v-73c0-0.3,0.1-0.5,0.2-0.8c0.1-0.2,0.4-0.4,0.7-0.5c0.3-0.1,0.8-0.3,1.4-0.3c0.6-0.1,1.3-0.1,2.2-0.1
		c0.9,0,1.7,0,2.2,0.1c0.6,0.1,1,0.2,1.4,0.3c0.3,0.1,0.6,0.3,0.7,0.5c0.1,0.2,0.2,0.5,0.2,0.8v29.4c1.5-1.5,2.9-2.8,4.2-3.8
		c1.4-1,2.7-1.8,4-2.5c1.3-0.6,2.6-1.1,3.9-1.4c1.3-0.3,2.7-0.4,4.2-0.4c3.6,0,6.6,0.7,9.1,2.1c2.5,1.4,4.6,3.3,6.2,5.7
		c1.6,2.4,2.7,5.2,3.5,8.4C381.8,42.5,382.1,45.9,382.1,49.5z M372.8,50.5c0-2.5-0.2-5-0.6-7.3c-0.4-2.4-1.1-4.5-2-6.3
		c-1-1.8-2.2-3.3-3.8-4.4c-1.6-1.1-3.5-1.7-5.9-1.7c-1.2,0-2.3,0.2-3.5,0.5c-1.1,0.3-2.3,0.9-3.5,1.6c-1.2,0.8-2.4,1.7-3.7,3
		c-1.3,1.2-2.6,2.7-4,4.5v19.6c2.5,3,4.9,5.3,7.1,6.9c2.3,1.6,4.6,2.4,7.1,2.4c2.3,0,4.2-0.5,5.8-1.6c1.6-1.1,2.9-2.5,3.9-4.3
		c1-1.8,1.7-3.8,2.2-6.1S372.8,52.8,372.8,50.5z"/>
	<path d="M466.3,9.5c0,0.7,0,1.3-0.1,1.8c-0.1,0.5-0.2,0.9-0.4,1.2c-0.2,0.3-0.4,0.5-0.6,0.7c-0.2,0.1-0.5,0.2-0.8,0.2h-19.9v61.3
		c0,0.3-0.1,0.5-0.2,0.8c-0.1,0.2-0.4,0.4-0.8,0.5c-0.4,0.1-0.8,0.2-1.4,0.3c-0.6,0.1-1.4,0.1-2.3,0.1c-0.9,0-1.6,0-2.2-0.1
		s-1.1-0.2-1.5-0.3c-0.4-0.1-0.6-0.3-0.8-0.5c-0.1-0.2-0.2-0.5-0.2-0.8V13.4h-19.9c-0.3,0-0.6-0.1-0.8-0.2c-0.2-0.1-0.4-0.4-0.6-0.7
		c-0.1-0.3-0.3-0.7-0.4-1.2c-0.1-0.5-0.1-1.1-0.1-1.8c0-0.7,0-1.3,0.1-1.8c0.1-0.5,0.2-1,0.4-1.3c0.1-0.3,0.3-0.6,0.6-0.7
		c0.2-0.1,0.5-0.2,0.8-0.2h49.2c0.3,0,0.6,0.1,0.8,0.2c0.2,0.1,0.4,0.4,0.6,0.7s0.3,0.8,0.4,1.3C466.3,8.1,466.3,8.8,466.3,9.5z"/>
	<path d="M507.5,48c0,1.4-0.4,2.4-1.1,3c-0.7,0.6-1.5,0.9-2.4,0.9h-32.4c0,2.7,0.3,5.2,0.8,7.4s1.5,4.1,2.7,5.6
		c1.3,1.6,2.9,2.8,5,3.6c2,0.8,4.6,1.3,7.5,1.3c2.3,0,4.4-0.2,6.3-0.6s3.4-0.8,4.7-1.3c1.3-0.5,2.4-0.9,3.3-1.3
		c0.9-0.4,1.5-0.6,1.9-0.6c0.3,0,0.5,0.1,0.7,0.2c0.2,0.1,0.4,0.3,0.5,0.6c0.1,0.3,0.2,0.6,0.2,1.1c0.1,0.5,0.1,1,0.1,1.7
		c0,0.5,0,0.9-0.1,1.2c0,0.3-0.1,0.7-0.1,0.9c-0.1,0.3-0.1,0.5-0.3,0.7c-0.1,0.2-0.3,0.4-0.5,0.6c-0.2,0.2-0.8,0.5-1.8,1
		c-1,0.5-2.3,0.9-3.8,1.3c-1.6,0.4-3.4,0.8-5.4,1.2c-2.1,0.3-4.3,0.5-6.6,0.5c-4,0-7.6-0.6-10.6-1.7c-3-1.1-5.6-2.8-7.7-5
		c-2.1-2.2-3.6-5-4.7-8.4c-1.1-3.4-1.6-7.2-1.6-11.7c0-4.2,0.5-8,1.6-11.4c1.1-3.4,2.7-6.2,4.7-8.6s4.5-4.2,7.5-5.4
		c2.9-1.3,6.2-1.9,9.8-1.9c3.9,0,7.1,0.6,9.9,1.9c2.7,1.2,4.9,2.9,6.7,5c1.7,2.1,3,4.6,3.9,7.4c0.8,2.8,1.2,5.8,1.2,9V48z
		 M498.4,45.3c0.1-4.7-0.9-8.4-3.2-11.1c-2.2-2.7-5.5-4-9.9-4c-2.2,0-4.2,0.4-5.9,1.3c-1.7,0.8-3.1,1.9-4.2,3.3
		c-1.1,1.4-2,3-2.6,4.8c-0.6,1.8-1,3.8-1,5.8H498.4z"/>
	<path d="M546.2,71.1c0,1.1-0.1,1.9-0.2,2.5c-0.1,0.6-0.4,1.1-0.7,1.4c-0.3,0.3-0.7,0.6-1.3,0.8c-0.6,0.3-1.2,0.5-2,0.6
		c-0.7,0.2-1.5,0.3-2.4,0.4c-0.8,0.1-1.7,0.2-2.5,0.2c-2.5,0-4.7-0.3-6.6-1c-1.8-0.7-3.3-1.7-4.5-3.1c-1.2-1.4-2-3.1-2.5-5.2
		s-0.8-4.6-0.8-7.4V31.6h-6.9c-0.5,0-1-0.3-1.3-0.9c-0.3-0.6-0.5-1.5-0.5-2.8c0-0.7,0-1.3,0.1-1.7c0.1-0.5,0.2-0.9,0.4-1.2
		c0.1-0.3,0.3-0.5,0.6-0.7c0.2-0.1,0.5-0.2,0.8-0.2h6.8V12.5c0-0.3,0.1-0.5,0.2-0.7c0.1-0.2,0.4-0.4,0.7-0.6
		c0.3-0.2,0.8-0.3,1.4-0.4c0.6-0.1,1.3-0.1,2.2-0.1c0.9,0,1.7,0,2.2,0.1c0.6,0.1,1,0.2,1.4,0.4c0.3,0.2,0.6,0.4,0.7,0.6
		c0.1,0.2,0.2,0.5,0.2,0.7v11.7h12.6c0.3,0,0.5,0.1,0.8,0.2c0.2,0.1,0.4,0.3,0.6,0.7c0.2,0.3,0.3,0.7,0.4,1.2
		c0.1,0.5,0.1,1.1,0.1,1.7c0,1.3-0.2,2.3-0.5,2.8c-0.3,0.6-0.8,0.9-1.3,0.9h-12.6v27.4c0,3.4,0.5,5.9,1.5,7.7c1,1.7,2.8,2.6,5.4,2.6
		c0.8,0,1.6-0.1,2.2-0.2s1.2-0.3,1.7-0.5c0.5-0.2,0.9-0.4,1.3-0.5c0.4-0.2,0.7-0.2,1-0.2c0.2,0,0.4,0,0.5,0.1
		c0.2,0.1,0.3,0.3,0.4,0.5c0.1,0.3,0.2,0.6,0.2,1C546.1,69.9,546.2,70.5,546.2,71.1z"/>
	<path d="M586.8,28.8c0,0.8,0,1.5-0.1,2c0,0.5-0.1,1-0.2,1.3c-0.1,0.3-0.2,0.5-0.4,0.7c-0.2,0.2-0.4,0.2-0.7,0.2
		c-0.3,0-0.6-0.1-1.1-0.2c-0.4-0.2-0.9-0.3-1.4-0.5c-0.5-0.2-1.1-0.3-1.8-0.5c-0.7-0.1-1.4-0.2-2.1-0.2c-0.9,0-1.8,0.2-2.7,0.5
		c-0.9,0.4-1.8,1-2.8,1.8c-1,0.8-2,1.9-3,3.3c-1.1,1.4-2.2,3.1-3.5,5.1v32.3c0,0.3-0.1,0.5-0.2,0.7c-0.1,0.2-0.4,0.4-0.7,0.5
		c-0.3,0.1-0.8,0.3-1.4,0.3c-0.6,0.1-1.3,0.1-2.2,0.1c-0.9,0-1.6,0-2.2-0.1c-0.6-0.1-1-0.2-1.4-0.3c-0.3-0.1-0.6-0.3-0.7-0.5
		c-0.1-0.2-0.2-0.4-0.2-0.7V25.6c0-0.3,0.1-0.5,0.2-0.7c0.1-0.2,0.3-0.4,0.7-0.5c0.3-0.2,0.7-0.3,1.3-0.3s1.2-0.1,2-0.1
		c0.8,0,1.5,0,2,0.1c0.5,0.1,0.9,0.2,1.2,0.3c0.3,0.2,0.5,0.3,0.6,0.5c0.1,0.2,0.2,0.4,0.2,0.7v7.2c1.3-2,2.6-3.6,3.8-4.8
		c1.2-1.2,2.3-2.2,3.4-2.9c1.1-0.7,2.1-1.2,3.1-1.5c1-0.3,2.1-0.4,3.1-0.4c0.5,0,1,0,1.6,0.1c0.6,0.1,1.2,0.2,1.9,0.3
		c0.7,0.1,1.2,0.3,1.8,0.5c0.5,0.2,0.9,0.4,1.1,0.5c0.2,0.2,0.4,0.4,0.4,0.5c0.1,0.2,0.1,0.4,0.2,0.6c0.1,0.3,0.1,0.6,0.1,1.1
		C586.8,27.3,586.8,28,586.8,28.8z"/>
	<path d="M607.1,9c0,2.1-0.4,3.6-1.2,4.3c-0.8,0.8-2.3,1.1-4.4,1.1c-2.1,0-3.6-0.4-4.3-1.1c-0.8-0.7-1.2-2.2-1.2-4.2
		c0-2.1,0.4-3.6,1.2-4.3c0.8-0.8,2.3-1.1,4.4-1.1c2.1,0,3.6,0.4,4.3,1.1C606.7,5.5,607.1,6.9,607.1,9z M606.1,74.7
		c0,0.3-0.1,0.5-0.2,0.7c-0.1,0.2-0.4,0.4-0.7,0.5c-0.3,0.1-0.8,0.3-1.4,0.3c-0.6,0.1-1.3,0.1-2.2,0.1c-0.9,0-1.6,0-2.2-0.1
		c-0.6-0.1-1-0.2-1.4-0.3c-0.3-0.1-0.6-0.3-0.7-0.5c-0.1-0.2-0.2-0.4-0.2-0.7V25.6c0-0.3,0.1-0.5,0.2-0.7c0.1-0.2,0.4-0.4,0.7-0.5
		c0.3-0.1,0.8-0.3,1.4-0.3c0.6-0.1,1.3-0.1,2.2-0.1c0.9,0,1.7,0,2.2,0.1c0.6,0.1,1,0.2,1.4,0.3c0.3,0.1,0.6,0.3,0.7,0.5
		c0.1,0.2,0.2,0.5,0.2,0.7V74.7z"/>
	<path d="M653.6,61.4c0,2.5-0.5,4.8-1.4,6.7s-2.2,3.6-4,5c-1.7,1.3-3.8,2.4-6.1,3.1s-5,1-7.8,1c-1.7,0-3.4-0.1-5-0.4
		c-1.6-0.3-3-0.6-4.3-1c-1.3-0.4-2.3-0.9-3.2-1.3c-0.9-0.5-1.5-0.9-1.9-1.2c-0.4-0.4-0.7-0.9-0.9-1.5c-0.2-0.7-0.3-1.5-0.3-2.7
		c0-0.7,0-1.3,0.1-1.7c0.1-0.5,0.2-0.9,0.3-1.1c0.1-0.3,0.3-0.5,0.5-0.6c0.2-0.1,0.4-0.2,0.7-0.2c0.4,0,1,0.2,1.8,0.7
		c0.8,0.5,1.7,1,2.9,1.6c1.1,0.6,2.5,1.1,4.1,1.6c1.6,0.5,3.4,0.7,5.4,0.7c1.5,0,2.9-0.2,4.2-0.5c1.2-0.3,2.3-0.8,3.2-1.4
		c0.9-0.6,1.6-1.4,2.1-2.4c0.5-1,0.7-2.1,0.7-3.5c0-1.4-0.4-2.5-1.1-3.5c-0.7-0.9-1.6-1.8-2.8-2.5c-1.2-0.7-2.5-1.4-3.9-1.9
		c-1.5-0.6-3-1.2-4.5-1.8c-1.5-0.6-3.1-1.3-4.5-2.1c-1.5-0.8-2.8-1.7-4-2.9c-1.2-1.1-2.1-2.5-2.8-4c-0.7-1.6-1.1-3.4-1.1-5.6
		c0-1.9,0.4-3.8,1.1-5.5c0.7-1.8,1.9-3.3,3.4-4.6c1.5-1.3,3.4-2.4,5.6-3.2c2.2-0.8,4.9-1.2,7.8-1.2c1.3,0,2.6,0.1,3.9,0.3
		c1.3,0.2,2.5,0.5,3.6,0.8c1.1,0.3,2,0.7,2.7,1.1c0.7,0.4,1.3,0.7,1.7,1c0.4,0.3,0.6,0.5,0.8,0.8c0.1,0.2,0.2,0.5,0.3,0.7
		c0.1,0.3,0.1,0.6,0.2,1c0.1,0.4,0.1,0.9,0.1,1.5c0,0.6,0,1.2-0.1,1.6c-0.1,0.5-0.1,0.8-0.3,1.1c-0.1,0.3-0.3,0.5-0.5,0.6
		c-0.2,0.1-0.4,0.2-0.6,0.2c-0.3,0-0.8-0.2-1.4-0.6c-0.6-0.4-1.4-0.8-2.4-1.3c-1-0.5-2.1-0.9-3.5-1.3c-1.3-0.4-2.9-0.6-4.6-0.6
		c-1.5,0-2.9,0.2-4,0.5c-1.2,0.3-2.1,0.8-2.9,1.5c-0.7,0.6-1.3,1.4-1.7,2.3c-0.4,0.9-0.6,1.8-0.6,2.8c0,1.4,0.4,2.6,1.1,3.6
		c0.7,1,1.7,1.8,2.8,2.5c1.2,0.7,2.5,1.4,4,2c1.5,0.6,3,1.2,4.6,1.8c1.5,0.6,3.1,1.3,4.6,2.1c1.5,0.8,2.8,1.7,4,2.8
		c1.2,1.1,2.1,2.4,2.8,3.9C653.3,57.4,653.6,59.2,653.6,61.4z"/>
</g>
</svg>
